<?xml version="1.0" encoding="UTF-8" standalone="no"?>
<!DOCTYPE svg PUBLIC "-//W3C//DTD SVG 1.1//EN"
 "http://www.w3.org/Graphics/SVG/1.1/DTD/svg11.dtd">
<!-- Generated by graphviz version 2.43.0 (0)
 -->
<!-- Title: %3 Pages: 1 -->
<svg width="1226pt" height="608pt"
 viewBox="0.00 0.00 1226.00 608.00" xmlns="http://www.w3.org/2000/svg" xmlns:xlink="http://www.w3.org/1999/xlink">
<g id="graph0" class="graph" transform="scale(1 1) rotate(0) translate(4 604)">
<title>%3</title>
<polygon fill="white" stroke="transparent" points="-4,4 -4,-604 1222,-604 1222,4 -4,4"/>
<!-- root -->
<g id="node1" class="node">
<title>root</title>
<polygon fill="#ffd700" stroke="black" points="414,-600 277,-600 277,-564 414,-564 414,-600"/>
<text text-anchor="middle" x="345.5" y="-578.9" font-family="Helvetica,sans-Serif" font-size="12.00">Compromise Device</text>
</g>
<!-- t5_tactic -->
<g id="node2" class="node">
<title>t5_tactic</title>
<polygon fill="#98fb98" stroke="black" points="383,-506 308,-506 308,-470 383,-470 383,-506"/>
<text text-anchor="middle" x="345.5" y="-484.9" font-family="Helvetica,sans-Serif" font-size="12.00">Discovery</text>
</g>
<!-- root&#45;&gt;t5_tactic -->
<g id="edge1" class="edge">
<title>root&#45;&gt;t5_tactic</title>
<path fill="none" stroke="black" d="M345.5,-563.88C345.5,-563.88 345.5,-516.07 345.5,-516.07"/>
<polygon fill="black" stroke="black" points="349,-516.07 345.5,-506.07 342,-516.07 349,-516.07"/>
</g>
<!-- t5_tac_or_3 -->
<g id="node15" class="node">
<title>t5_tac_or_3</title>
<ellipse fill="#ffcccb" stroke="black" cx="345.5" cy="-394" rx="27" ry="18"/>
<text text-anchor="middle" x="345.5" y="-390.9" font-family="Helvetica,sans-Serif" font-size="12.00">OR</text>
</g>
<!-- t5_tactic&#45;&gt;t5_tac_or_3 -->
<g id="edge15" class="edge">
<title>t5_tactic&#45;&gt;t5_tac_or_3</title>
<path fill="none" stroke="black" d="M345.5,-469.88C345.5,-469.88 345.5,-422.07 345.5,-422.07"/>
<polygon fill="black" stroke="black" points="349,-422.07 345.5,-412.07 342,-422.07 349,-422.07"/>
</g>
<!-- t5_cwe_0 -->
<g id="node3" class="node">
<title>t5_cwe_0</title>
<polygon fill="#add8e6" stroke="black" points="392,-318 63,-318 63,-282 398,-282 398,-312 392,-318"/>
<polyline fill="none" stroke="black" points="392,-318 392,-312 "/>
<polyline fill="none" stroke="black" points="398,-312 392,-312 "/>
<text text-anchor="middle" x="230.5" y="-296.9" font-family="Helvetica,sans-Serif" font-size="12.00">Incorrect Permission Assignment for Critical Resource</text>
</g>
<!-- t5_and_0 -->
<g id="node6" class="node">
<title>t5_and_0</title>
<ellipse fill="#ffcccb" stroke="black" cx="230.5" cy="-206" rx="27" ry="18"/>
<text text-anchor="middle" x="230.5" y="-202.9" font-family="Helvetica,sans-Serif" font-size="12.00">AND</text>
</g>
<!-- t5_cwe_0&#45;&gt;t5_and_0 -->
<g id="edge4" class="edge">
<title>t5_cwe_0&#45;&gt;t5_and_0</title>
<path fill="none" stroke="black" d="M230.5,-281.88C230.5,-281.88 230.5,-234.07 230.5,-234.07"/>
<polygon fill="black" stroke="black" points="234,-234.07 230.5,-224.07 227,-234.07 234,-234.07"/>
</g>
<!-- t5_tech_0 -->
<g id="node4" class="node">
<title>t5_tech_0</title>
<polygon fill="#90ee90" stroke="black" points="183,-130 0,-130 0,-94 183,-94 183,-130"/>
<text text-anchor="middle" x="91.5" y="-108.9" font-family="Helvetica,sans-Serif" font-size="12.00">File and Directory Discovery</text>
</g>
<!-- t5_cap_0 -->
<g id="node5" class="node">
<title>t5_cap_0</title>
<polygon fill="#ffb6c1" stroke="black" points="345.5,-130 219.5,-130 219.5,-94 345.5,-94 345.5,-130"/>
<text text-anchor="middle" x="282.5" y="-108.9" font-family="Helvetica,sans-Serif" font-size="12.00">Directory Indexing</text>
</g>
<!-- t5_and_0&#45;&gt;t5_tech_0 -->
<g id="edge2" class="edge">
<title>t5_and_0&#45;&gt;t5_tech_0</title>
<path fill="none" stroke="black" d="M211.5,-192.93C211.5,-167.1 211.5,-112 211.5,-112 211.5,-112 193.06,-112 193.06,-112"/>
<polygon fill="black" stroke="black" points="193.06,-108.5 183.06,-112 193.06,-115.5 193.06,-108.5"/>
</g>
<!-- t5_and_0&#45;&gt;t5_cap_0 -->
<g id="edge3" class="edge">
<title>t5_and_0&#45;&gt;t5_cap_0</title>
<path fill="none" stroke="black" d="M238.5,-188.76C238.5,-188.76 238.5,-140.09 238.5,-140.09"/>
<polygon fill="black" stroke="black" points="242,-140.09 238.5,-130.09 235,-140.09 242,-140.09"/>
</g>
<!-- t5_cwe_1 -->
<g id="node7" class="node">
<title>t5_cwe_1</title>
<polygon fill="#add8e6" stroke="black" points="594.5,-224 302.5,-224 302.5,-188 600.5,-188 600.5,-218 594.5,-224"/>
<polyline fill="none" stroke="black" points="594.5,-224 594.5,-218 "/>
<polyline fill="none" stroke="black" points="600.5,-218 594.5,-218 "/>
<text text-anchor="middle" x="451.5" y="-202.9" font-family="Helvetica,sans-Serif" font-size="12.00">Cleartext Transmission of Sensitive Information</text>
</g>
<!-- t5_and_1 -->
<g id="node10" class="node">
<title>t5_and_1</title>
<ellipse fill="#ffcccb" stroke="black" cx="451.5" cy="-112" rx="27" ry="18"/>
<text text-anchor="middle" x="451.5" y="-108.9" font-family="Helvetica,sans-Serif" font-size="12.00">AND</text>
</g>
<!-- t5_cwe_1&#45;&gt;t5_and_1 -->
<g id="edge7" class="edge">
<title>t5_cwe_1&#45;&gt;t5_and_1</title>
<path fill="none" stroke="black" d="M451.5,-187.88C451.5,-187.88 451.5,-140.07 451.5,-140.07"/>
<polygon fill="black" stroke="black" points="455,-140.07 451.5,-130.07 448,-140.07 455,-140.07"/>
</g>
<!-- t5_tech_1 -->
<g id="node8" class="node">
<title>t5_tech_1</title>
<polygon fill="#90ee90" stroke="black" points="367,-36 252,-36 252,0 367,0 367,-36"/>
<text text-anchor="middle" x="309.5" y="-14.9" font-family="Helvetica,sans-Serif" font-size="12.00">Network Sniffing</text>
</g>
<!-- t5_cap_1 -->
<g id="node9" class="node">
<title>t5_cap_1</title>
<polygon fill="#ffb6c1" stroke="black" points="550,-36 403,-36 403,0 550,0 550,-36"/>
<text text-anchor="middle" x="476.5" y="-14.9" font-family="Helvetica,sans-Serif" font-size="12.00">Sniff Application Code</text>
</g>
<!-- t5_and_1&#45;&gt;t5_tech_1 -->
<g id="edge5" class="edge">
<title>t5_and_1&#45;&gt;t5_tech_1</title>
<path fill="none" stroke="black" d="M424.46,-112C396.3,-112 356.25,-112 356.25,-112 356.25,-112 356.25,-46.12 356.25,-46.12"/>
<polygon fill="black" stroke="black" points="359.75,-46.12 356.25,-36.12 352.75,-46.12 359.75,-46.12"/>
</g>
<!-- t5_and_1&#45;&gt;t5_cap_1 -->
<g id="edge6" class="edge">
<title>t5_and_1&#45;&gt;t5_cap_1</title>
<path fill="none" stroke="black" d="M451.5,-93.88C451.5,-93.88 451.5,-46.07 451.5,-46.07"/>
<polygon fill="black" stroke="black" points="455,-46.07 451.5,-36.07 448,-46.07 455,-46.07"/>
</g>
<!-- t5_cwe_2 -->
<g id="node11" class="node">
<title>t5_cwe_2</title>
<polygon fill="#add8e6" stroke="black" points="794,-224 637,-224 637,-188 800,-188 800,-218 794,-224"/>
<polyline fill="none" stroke="black" points="794,-224 794,-218 "/>
<polyline fill="none" stroke="black" points="800,-218 794,-218 "/>
<text text-anchor="middle" x="718.5" y="-202.9" font-family="Helvetica,sans-Serif" font-size="12.00">Improper Authentication</text>
</g>
<!-- t5_and_2 -->
<g id="node14" class="node">
<title>t5_and_2</title>
<ellipse fill="#ffcccb" stroke="black" cx="718.5" cy="-112" rx="27" ry="18"/>
<text text-anchor="middle" x="718.5" y="-108.9" font-family="Helvetica,sans-Serif" font-size="12.00">AND</text>
</g>
<!-- t5_cwe_2&#45;&gt;t5_and_2 -->
<g id="edge10" class="edge">
<title>t5_cwe_2&#45;&gt;t5_and_2</title>
<path fill="none" stroke="black" d="M718.5,-187.88C718.5,-187.88 718.5,-140.07 718.5,-140.07"/>
<polygon fill="black" stroke="black" points="722,-140.07 718.5,-130.07 715,-140.07 722,-140.07"/>
</g>
<!-- t5_tech_2 -->
<g id="node12" class="node">
<title>t5_tech_2</title>
<polygon fill="#90ee90" stroke="black" points="751,-36 636,-36 636,0 751,0 751,-36"/>
<text text-anchor="middle" x="693.5" y="-14.9" font-family="Helvetica,sans-Serif" font-size="12.00">Network Sniffing</text>
</g>
<!-- t5_cap_2 -->
<g id="node13" class="node">
<title>t5_cap_2</title>
<polygon fill="#ffb6c1" stroke="black" points="1218,-36 787,-36 787,0 1218,0 1218,-36"/>
<text text-anchor="middle" x="1002.5" y="-14.9" font-family="Helvetica,sans-Serif" font-size="12.00">Utilizing REST&#39;s Trust in the System Resource to Obtain Sensitive Data</text>
</g>
<!-- t5_and_2&#45;&gt;t5_tech_2 -->
<g id="edge8" class="edge">
<title>t5_and_2&#45;&gt;t5_tech_2</title>
<path fill="none" stroke="black" d="M718.5,-93.88C718.5,-93.88 718.5,-46.07 718.5,-46.07"/>
<polygon fill="black" stroke="black" points="722,-46.07 718.5,-36.07 715,-46.07 722,-46.07"/>
</g>
<!-- t5_and_2&#45;&gt;t5_cap_2 -->
<g id="edge9" class="edge">
<title>t5_and_2&#45;&gt;t5_cap_2</title>
<path fill="none" stroke="black" d="M745.58,-112C767.06,-112 793.5,-112 793.5,-112 793.5,-112 793.5,-46.12 793.5,-46.12"/>
<polygon fill="black" stroke="black" points="797,-46.12 793.5,-36.12 790,-46.12 797,-46.12"/>
</g>
<!-- t5_tac_or_3&#45;&gt;t5_cwe_0 -->
<g id="edge13" class="edge">
<title>t5_tac_or_3&#45;&gt;t5_cwe_0</title>
<path fill="none" stroke="black" d="M345.5,-375.88C345.5,-375.88 345.5,-328.07 345.5,-328.07"/>
<polygon fill="black" stroke="black" points="349,-328.07 345.5,-318.07 342,-328.07 349,-328.07"/>
</g>
<!-- t5_tac_or_4 -->
<g id="node16" class="node">
<title>t5_tac_or_4</title>
<ellipse fill="#ffcccb" stroke="black" cx="461.5" cy="-300" rx="27" ry="18"/>
<text text-anchor="middle" x="461.5" y="-296.9" font-family="Helvetica,sans-Serif" font-size="12.00">OR</text>
</g>
<!-- t5_tac_or_3&#45;&gt;t5_tac_or_4 -->
<g id="edge14" class="edge">
<title>t5_tac_or_3&#45;&gt;t5_tac_or_4</title>
<path fill="none" stroke="black" d="M372.7,-394C406.98,-394 461.5,-394 461.5,-394 461.5,-394 461.5,-328.12 461.5,-328.12"/>
<polygon fill="black" stroke="black" points="465,-328.12 461.5,-318.12 458,-328.12 465,-328.12"/>
</g>
<!-- t5_tac_or_4&#45;&gt;t5_cwe_1 -->
<g id="edge11" class="edge">
<title>t5_tac_or_4&#45;&gt;t5_cwe_1</title>
<path fill="none" stroke="black" d="M461.5,-281.88C461.5,-281.88 461.5,-234.07 461.5,-234.07"/>
<polygon fill="black" stroke="black" points="465,-234.07 461.5,-224.07 458,-234.07 465,-234.07"/>
</g>
<!-- t5_tac_or_4&#45;&gt;t5_cwe_2 -->
<g id="edge12" class="edge">
<title>t5_tac_or_4&#45;&gt;t5_cwe_2</title>
<path fill="none" stroke="black" d="M488.52,-300C554.5,-300 718.5,-300 718.5,-300 718.5,-300 718.5,-234.12 718.5,-234.12"/>
<polygon fill="black" stroke="black" points="722,-234.12 718.5,-224.12 715,-234.12 722,-234.12"/>
</g>
</g>
</svg>
