<?xml version="1.0" encoding="UTF-8" standalone="no"?>
<!DOCTYPE svg PUBLIC "-//W3C//DTD SVG 1.1//EN"
 "http://www.w3.org/Graphics/SVG/1.1/DTD/svg11.dtd">
<!-- Generated by graphviz version 2.43.0 (0)
 -->
<!-- Title: %3 Pages: 1 -->
<svg width="1252pt" height="608pt"
 viewBox="0.00 0.00 1251.50 608.00" xmlns="http://www.w3.org/2000/svg" xmlns:xlink="http://www.w3.org/1999/xlink">
<g id="graph0" class="graph" transform="scale(1 1) rotate(0) translate(4 604)">
<title>%3</title>
<polygon fill="white" stroke="transparent" points="-4,4 -4,-604 1247.5,-604 1247.5,4 -4,4"/>
<!-- root -->
<g id="node1" class="node">
<title>root</title>
<polygon fill="#ffd700" stroke="black" points="722.5,-600 585.5,-600 585.5,-564 722.5,-564 722.5,-600"/>
<text text-anchor="middle" x="654" y="-578.9" font-family="Helvetica,sans-Serif" font-size="12.00">Compromise Device</text>
</g>
<!-- t6_tactic -->
<g id="node2" class="node">
<title>t6_tactic</title>
<polygon fill="#98fb98" stroke="black" points="717,-506 591,-506 591,-470 717,-470 717,-506"/>
<text text-anchor="middle" x="654" y="-484.9" font-family="Helvetica,sans-Serif" font-size="12.00">Lateral Movement</text>
</g>
<!-- root&#45;&gt;t6_tactic -->
<g id="edge1" class="edge">
<title>root&#45;&gt;t6_tactic</title>
<path fill="none" stroke="black" d="M654,-563.88C654,-563.88 654,-516.07 654,-516.07"/>
<polygon fill="black" stroke="black" points="657.5,-516.07 654,-506.07 650.5,-516.07 657.5,-516.07"/>
</g>
<!-- t6_tac_or_4 -->
<g id="node15" class="node">
<title>t6_tac_or_4</title>
<ellipse fill="#ffcccb" stroke="black" cx="654" cy="-394" rx="27" ry="18"/>
<text text-anchor="middle" x="654" y="-390.9" font-family="Helvetica,sans-Serif" font-size="12.00">OR</text>
</g>
<!-- t6_tactic&#45;&gt;t6_tac_or_4 -->
<g id="edge14" class="edge">
<title>t6_tactic&#45;&gt;t6_tac_or_4</title>
<path fill="none" stroke="black" d="M654,-469.88C654,-469.88 654,-422.07 654,-422.07"/>
<polygon fill="black" stroke="black" points="657.5,-422.07 654,-412.07 650.5,-422.07 657.5,-422.07"/>
</g>
<!-- t6_cwe_0 -->
<g id="node3" class="node">
<title>t6_cwe_0</title>
<polygon fill="#add8e6" stroke="black" points="673.5,-318 344.5,-318 344.5,-282 679.5,-282 679.5,-312 673.5,-318"/>
<polyline fill="none" stroke="black" points="673.5,-318 673.5,-312 "/>
<polyline fill="none" stroke="black" points="679.5,-312 673.5,-312 "/>
<text text-anchor="middle" x="512" y="-296.9" font-family="Helvetica,sans-Serif" font-size="12.00">Incorrect Permission Assignment for Critical Resource</text>
</g>
<!-- t6_and_0 -->
<g id="node6" class="node">
<title>t6_and_0</title>
<ellipse fill="#ffcccb" stroke="black" cx="512" cy="-206" rx="27" ry="18"/>
<text text-anchor="middle" x="512" y="-202.9" font-family="Helvetica,sans-Serif" font-size="12.00">AND</text>
</g>
<!-- t6_cwe_0&#45;&gt;t6_and_0 -->
<g id="edge4" class="edge">
<title>t6_cwe_0&#45;&gt;t6_and_0</title>
<path fill="none" stroke="black" d="M512,-281.88C512,-281.88 512,-234.07 512,-234.07"/>
<polygon fill="black" stroke="black" points="515.5,-234.07 512,-224.07 508.5,-234.07 515.5,-234.07"/>
</g>
<!-- t6_sub_0 -->
<g id="node4" class="node">
<title>t6_sub_0</title>
<polygon fill="#fffacd" stroke="black" points="368,-130 0,-130 0,-94 368,-94 368,-130"/>
<text text-anchor="middle" x="184" y="-108.9" font-family="Helvetica,sans-Serif" font-size="12.00">Use Alternate Authentication Material: Web Session Cookie</text>
</g>
<!-- t6_cap_0 -->
<g id="node5" class="node">
<title>t6_cap_0</title>
<polygon fill="#ffb6c1" stroke="black" points="665.5,-130 404.5,-130 404.5,-94 665.5,-94 665.5,-130"/>
<text text-anchor="middle" x="535" y="-108.9" font-family="Helvetica,sans-Serif" font-size="12.00">Reusing Session IDs (aka Session Replay)</text>
</g>
<!-- t6_and_0&#45;&gt;t6_sub_0 -->
<g id="edge2" class="edge">
<title>t6_and_0&#45;&gt;t6_sub_0</title>
<path fill="none" stroke="black" d="M484.87,-206C440.25,-206 356.25,-206 356.25,-206 356.25,-206 356.25,-140.12 356.25,-140.12"/>
<polygon fill="black" stroke="black" points="359.75,-140.12 356.25,-130.12 352.75,-140.12 359.75,-140.12"/>
</g>
<!-- t6_and_0&#45;&gt;t6_cap_0 -->
<g id="edge3" class="edge">
<title>t6_and_0&#45;&gt;t6_cap_0</title>
<path fill="none" stroke="black" d="M512,-187.88C512,-187.88 512,-140.07 512,-140.07"/>
<polygon fill="black" stroke="black" points="515.5,-140.07 512,-130.07 508.5,-140.07 515.5,-140.07"/>
</g>
<!-- t6_cwe_1 -->
<g id="node7" class="node">
<title>t6_cwe_1</title>
<polygon fill="#add8e6" stroke="black" points="872.5,-318 715.5,-318 715.5,-282 878.5,-282 878.5,-312 872.5,-318"/>
<polyline fill="none" stroke="black" points="872.5,-318 872.5,-312 "/>
<polyline fill="none" stroke="black" points="878.5,-312 872.5,-312 "/>
<text text-anchor="middle" x="797" y="-296.9" font-family="Helvetica,sans-Serif" font-size="12.00">Improper Authentication</text>
</g>
<!-- t6_cwe1_or_3 -->
<g id="node14" class="node">
<title>t6_cwe1_or_3</title>
<ellipse fill="#ffcccb" stroke="black" cx="797" cy="-206" rx="27" ry="18"/>
<text text-anchor="middle" x="797" y="-202.9" font-family="Helvetica,sans-Serif" font-size="12.00">OR</text>
</g>
<!-- t6_cwe_1&#45;&gt;t6_cwe1_or_3 -->
<g id="edge11" class="edge">
<title>t6_cwe_1&#45;&gt;t6_cwe1_or_3</title>
<path fill="none" stroke="black" d="M797,-281.88C797,-281.88 797,-234.07 797,-234.07"/>
<polygon fill="black" stroke="black" points="800.5,-234.07 797,-224.07 793.5,-234.07 800.5,-234.07"/>
</g>
<!-- t6_sub_1 -->
<g id="node8" class="node">
<title>t6_sub_1</title>
<polygon fill="#fffacd" stroke="black" points="678,-36 280,-36 280,0 678,0 678,-36"/>
<text text-anchor="middle" x="479" y="-14.9" font-family="Helvetica,sans-Serif" font-size="12.00">Use Alternate Authentication Material: Application Access Token</text>
</g>
<!-- t6_cap_1 -->
<g id="node9" class="node">
<title>t6_cap_1</title>
<polygon fill="#ffb6c1" stroke="black" points="833.5,-36 714.5,-36 714.5,0 833.5,0 833.5,-36"/>
<text text-anchor="middle" x="774" y="-14.9" font-family="Helvetica,sans-Serif" font-size="12.00">Session Hijacking</text>
</g>
<!-- t6_and_1 -->
<g id="node10" class="node">
<title>t6_and_1</title>
<ellipse fill="#ffcccb" stroke="black" cx="774" cy="-112" rx="27" ry="18"/>
<text text-anchor="middle" x="774" y="-108.9" font-family="Helvetica,sans-Serif" font-size="12.00">AND</text>
</g>
<!-- t6_and_1&#45;&gt;t6_sub_1 -->
<g id="edge5" class="edge">
<title>t6_and_1&#45;&gt;t6_sub_1</title>
<path fill="none" stroke="black" d="M746.87,-112C716.58,-112 671.75,-112 671.75,-112 671.75,-112 671.75,-46.12 671.75,-46.12"/>
<polygon fill="black" stroke="black" points="675.25,-46.12 671.75,-36.12 668.25,-46.12 675.25,-46.12"/>
</g>
<!-- t6_and_1&#45;&gt;t6_cap_1 -->
<g id="edge6" class="edge">
<title>t6_and_1&#45;&gt;t6_cap_1</title>
<path fill="none" stroke="black" d="M774,-93.88C774,-93.88 774,-46.07 774,-46.07"/>
<polygon fill="black" stroke="black" points="777.5,-46.07 774,-36.07 770.5,-46.07 777.5,-46.07"/>
</g>
<!-- t6_tech_2 -->
<g id="node11" class="node">
<title>t6_tech_2</title>
<polygon fill="#90ee90" stroke="black" points="1088,-36 870,-36 870,0 1088,0 1088,-36"/>
<text text-anchor="middle" x="979" y="-14.9" font-family="Helvetica,sans-Serif" font-size="12.00">Remote Service Session Hijacking</text>
</g>
<!-- t6_cap_2 -->
<g id="node12" class="node">
<title>t6_cap_2</title>
<polygon fill="#ffb6c1" stroke="black" points="1243.5,-36 1124.5,-36 1124.5,0 1243.5,0 1243.5,-36"/>
<text text-anchor="middle" x="1184" y="-14.9" font-family="Helvetica,sans-Serif" font-size="12.00">Session Hijacking</text>
</g>
<!-- t6_and_2 -->
<g id="node13" class="node">
<title>t6_and_2</title>
<ellipse fill="#ffcccb" stroke="black" cx="979" cy="-112" rx="27" ry="18"/>
<text text-anchor="middle" x="979" y="-108.9" font-family="Helvetica,sans-Serif" font-size="12.00">AND</text>
</g>
<!-- t6_and_2&#45;&gt;t6_tech_2 -->
<g id="edge7" class="edge">
<title>t6_and_2&#45;&gt;t6_tech_2</title>
<path fill="none" stroke="black" d="M979,-93.88C979,-93.88 979,-46.07 979,-46.07"/>
<polygon fill="black" stroke="black" points="982.5,-46.07 979,-36.07 975.5,-46.07 982.5,-46.07"/>
</g>
<!-- t6_and_2&#45;&gt;t6_cap_2 -->
<g id="edge8" class="edge">
<title>t6_and_2&#45;&gt;t6_cap_2</title>
<path fill="none" stroke="black" d="M1006.22,-112C1061.99,-112 1184,-112 1184,-112 1184,-112 1184,-46.12 1184,-46.12"/>
<polygon fill="black" stroke="black" points="1187.5,-46.12 1184,-36.12 1180.5,-46.12 1187.5,-46.12"/>
</g>
<!-- t6_cwe1_or_3&#45;&gt;t6_and_1 -->
<g id="edge9" class="edge">
<title>t6_cwe1_or_3&#45;&gt;t6_and_1</title>
<path fill="none" stroke="black" d="M785.5,-189.63C785.5,-189.63 785.5,-138.5 785.5,-138.5"/>
<polygon fill="black" stroke="black" points="789,-138.5 785.5,-128.5 782,-138.5 789,-138.5"/>
</g>
<!-- t6_cwe1_or_3&#45;&gt;t6_and_2 -->
<g id="edge10" class="edge">
<title>t6_cwe1_or_3&#45;&gt;t6_and_2</title>
<path fill="none" stroke="black" d="M812.5,-190.9C812.5,-164.33 812.5,-112 812.5,-112 812.5,-112 941.88,-112 941.88,-112"/>
<polygon fill="black" stroke="black" points="941.88,-115.5 951.88,-112 941.88,-108.5 941.88,-115.5"/>
</g>
<!-- t6_tac_or_4&#45;&gt;t6_cwe_0 -->
<g id="edge12" class="edge">
<title>t6_tac_or_4&#45;&gt;t6_cwe_0</title>
<path fill="none" stroke="black" d="M653.25,-375.88C653.25,-375.88 653.25,-328.07 653.25,-328.07"/>
<polygon fill="black" stroke="black" points="656.75,-328.07 653.25,-318.07 649.75,-328.07 656.75,-328.07"/>
</g>
<!-- t6_tac_or_4&#45;&gt;t6_cwe_1 -->
<g id="edge13" class="edge">
<title>t6_tac_or_4&#45;&gt;t6_cwe_1</title>
<path fill="none" stroke="black" d="M681.21,-394C723.58,-394 800.5,-394 800.5,-394 800.5,-394 800.5,-328.12 800.5,-328.12"/>
<polygon fill="black" stroke="black" points="804,-328.12 800.5,-318.12 797,-328.12 804,-328.12"/>
</g>
</g>
</svg>
