<?xml version="1.0" encoding="UTF-8" standalone="no"?>
<!DOCTYPE svg PUBLIC "-//W3C//DTD SVG 1.1//EN"
 "http://www.w3.org/Graphics/SVG/1.1/DTD/svg11.dtd">
<!-- Generated by graphviz version 2.43.0 (0)
 -->
<!-- Title: %3 Pages: 1 -->
<svg width="1190pt" height="514pt"
 viewBox="0.00 0.00 1190.00 514.00" xmlns="http://www.w3.org/2000/svg" xmlns:xlink="http://www.w3.org/1999/xlink">
<g id="graph0" class="graph" transform="scale(1 1) rotate(0) translate(4 510)">
<title>%3</title>
<polygon fill="white" stroke="transparent" points="-4,4 -4,-510 1186,-510 1186,4 -4,4"/>
<!-- root -->
<g id="node1" class="node">
<title>root</title>
<polygon fill="#ffd700" stroke="black" points="573,-506 436,-506 436,-470 573,-470 573,-506"/>
<text text-anchor="middle" x="504.5" y="-484.9" font-family="Helvetica,sans-Serif" font-size="12.00">Compromise Device</text>
</g>
<!-- t8_tactic -->
<g id="node2" class="node">
<title>t8_tactic</title>
<polygon fill="#98fb98" stroke="black" points="531.5,-412 477.5,-412 477.5,-376 531.5,-376 531.5,-412"/>
<text text-anchor="middle" x="504.5" y="-390.9" font-family="Helvetica,sans-Serif" font-size="12.00">nan</text>
</g>
<!-- root&#45;&gt;t8_tactic -->
<g id="edge1" class="edge">
<title>root&#45;&gt;t8_tactic</title>
<path fill="none" stroke="black" d="M504.5,-469.88C504.5,-469.88 504.5,-422.07 504.5,-422.07"/>
<polygon fill="black" stroke="black" points="508,-422.07 504.5,-412.07 501,-422.07 508,-422.07"/>
</g>
<!-- t8_tac_or_0 -->
<g id="node9" class="node">
<title>t8_tac_or_0</title>
<ellipse fill="#ffcccb" stroke="black" cx="504.5" cy="-300" rx="27" ry="18"/>
<text text-anchor="middle" x="504.5" y="-296.9" font-family="Helvetica,sans-Serif" font-size="12.00">OR</text>
</g>
<!-- t8_tactic&#45;&gt;t8_tac_or_0 -->
<g id="edge12" class="edge">
<title>t8_tactic&#45;&gt;t8_tac_or_0</title>
<path fill="none" stroke="black" d="M504.5,-375.88C504.5,-375.88 504.5,-328.07 504.5,-328.07"/>
<polygon fill="black" stroke="black" points="508,-328.07 504.5,-318.07 501,-328.07 508,-328.07"/>
</g>
<!-- t8_cwe_0 -->
<g id="node3" class="node">
<title>t8_cwe_0</title>
<polygon fill="#add8e6" stroke="black" points="329,-130 0,-130 0,-94 335,-94 335,-124 329,-130"/>
<polyline fill="none" stroke="black" points="329,-130 329,-124 "/>
<polyline fill="none" stroke="black" points="335,-124 329,-124 "/>
<text text-anchor="middle" x="167.5" y="-108.9" font-family="Helvetica,sans-Serif" font-size="12.00">Incorrect Permission Assignment for Critical Resource</text>
</g>
<!-- t8_cwe_1 -->
<g id="node4" class="node">
<title>t8_cwe_1</title>
<polygon fill="#add8e6" stroke="black" points="228.5,-36 46.5,-36 46.5,0 234.5,0 234.5,-30 228.5,-36"/>
<polyline fill="none" stroke="black" points="228.5,-36 228.5,-30 "/>
<polyline fill="none" stroke="black" points="234.5,-30 228.5,-30 "/>
<text text-anchor="middle" x="140.5" y="-14.9" font-family="Helvetica,sans-Serif" font-size="12.00">Use of Hard&#45;coded Password</text>
</g>
<!-- t8_cwe_2 -->
<g id="node5" class="node">
<title>t8_cwe_2</title>
<polygon fill="#add8e6" stroke="black" points="592.5,-36 270.5,-36 270.5,0 598.5,0 598.5,-30 592.5,-36"/>
<polyline fill="none" stroke="black" points="592.5,-36 592.5,-30 "/>
<polyline fill="none" stroke="black" points="598.5,-30 592.5,-30 "/>
<text text-anchor="middle" x="434.5" y="-14.9" font-family="Helvetica,sans-Serif" font-size="12.00">Operation on a Resource after Expiration or Release</text>
</g>
<!-- t8_cwe_3 -->
<g id="node6" class="node">
<title>t8_cwe_3</title>
<polygon fill="#add8e6" stroke="black" points="753.5,-130 461.5,-130 461.5,-94 759.5,-94 759.5,-124 753.5,-130"/>
<polyline fill="none" stroke="black" points="753.5,-130 753.5,-124 "/>
<polyline fill="none" stroke="black" points="759.5,-124 753.5,-124 "/>
<text text-anchor="middle" x="610.5" y="-108.9" font-family="Helvetica,sans-Serif" font-size="12.00">Cleartext Transmission of Sensitive Information</text>
</g>
<!-- t8_cwe_4 -->
<g id="node7" class="node">
<title>t8_cwe_4</title>
<polygon fill="#add8e6" stroke="black" points="863,-36 706,-36 706,0 869,0 869,-30 863,-36"/>
<polyline fill="none" stroke="black" points="863,-36 863,-30 "/>
<polyline fill="none" stroke="black" points="869,-30 863,-30 "/>
<text text-anchor="middle" x="787.5" y="-14.9" font-family="Helvetica,sans-Serif" font-size="12.00">Improper Authentication</text>
</g>
<!-- t8_cwe_5 -->
<g id="node8" class="node">
<title>t8_cwe_5</title>
<polygon fill="#add8e6" stroke="black" points="1176,-36 905,-36 905,0 1182,0 1182,-30 1176,-36"/>
<polyline fill="none" stroke="black" points="1176,-36 1176,-30 "/>
<polyline fill="none" stroke="black" points="1182,-30 1176,-30 "/>
<text text-anchor="middle" x="1043.5" y="-14.9" font-family="Helvetica,sans-Serif" font-size="12.00">DEPRECATED: Authentication Bypass Issues</text>
</g>
<!-- t8_tac_or_1 -->
<g id="node10" class="node">
<title>t8_tac_or_1</title>
<ellipse fill="#ffcccb" stroke="black" cx="398.5" cy="-206" rx="27" ry="18"/>
<text text-anchor="middle" x="398.5" y="-202.9" font-family="Helvetica,sans-Serif" font-size="12.00">OR</text>
</g>
<!-- t8_tac_or_0&#45;&gt;t8_tac_or_1 -->
<g id="edge10" class="edge">
<title>t8_tac_or_0&#45;&gt;t8_tac_or_1</title>
<path fill="none" stroke="black" d="M504.5,-281.88C504.5,-254.56 504.5,-206 504.5,-206 504.5,-206 435.52,-206 435.52,-206"/>
<polygon fill="black" stroke="black" points="435.52,-202.5 425.52,-206 435.52,-209.5 435.52,-202.5"/>
</g>
<!-- t8_tac_or_3 -->
<g id="node12" class="node">
<title>t8_tac_or_3</title>
<ellipse fill="#ffcccb" stroke="black" cx="610.5" cy="-206" rx="27" ry="18"/>
<text text-anchor="middle" x="610.5" y="-202.9" font-family="Helvetica,sans-Serif" font-size="12.00">OR</text>
</g>
<!-- t8_tac_or_0&#45;&gt;t8_tac_or_3 -->
<g id="edge11" class="edge">
<title>t8_tac_or_0&#45;&gt;t8_tac_or_3</title>
<path fill="none" stroke="black" d="M531.52,-300C562.93,-300 610.5,-300 610.5,-300 610.5,-300 610.5,-234.12 610.5,-234.12"/>
<polygon fill="black" stroke="black" points="614,-234.12 610.5,-224.12 607,-234.12 614,-234.12"/>
</g>
<!-- t8_tac_or_1&#45;&gt;t8_cwe_0 -->
<g id="edge4" class="edge">
<title>t8_tac_or_1&#45;&gt;t8_cwe_0</title>
<path fill="none" stroke="black" d="M371.09,-206C309.9,-206 167.5,-206 167.5,-206 167.5,-206 167.5,-140.12 167.5,-140.12"/>
<polygon fill="black" stroke="black" points="171,-140.12 167.5,-130.12 164,-140.12 171,-140.12"/>
</g>
<!-- t8_tac_or_2 -->
<g id="node11" class="node">
<title>t8_tac_or_2</title>
<ellipse fill="#ffcccb" stroke="black" cx="398.5" cy="-112" rx="27" ry="18"/>
<text text-anchor="middle" x="398.5" y="-108.9" font-family="Helvetica,sans-Serif" font-size="12.00">OR</text>
</g>
<!-- t8_tac_or_1&#45;&gt;t8_tac_or_2 -->
<g id="edge5" class="edge">
<title>t8_tac_or_1&#45;&gt;t8_tac_or_2</title>
<path fill="none" stroke="black" d="M398.5,-187.88C398.5,-187.88 398.5,-140.07 398.5,-140.07"/>
<polygon fill="black" stroke="black" points="402,-140.07 398.5,-130.07 395,-140.07 402,-140.07"/>
</g>
<!-- t8_tac_or_2&#45;&gt;t8_cwe_1 -->
<g id="edge2" class="edge">
<title>t8_tac_or_2&#45;&gt;t8_cwe_1</title>
<path fill="none" stroke="black" d="M389.5,-94.77C389.5,-81.35 389.5,-65 389.5,-65 389.5,-65 140.5,-65 140.5,-65 140.5,-65 140.5,-46.04 140.5,-46.04"/>
<polygon fill="black" stroke="black" points="144,-46.04 140.5,-36.04 137,-46.04 144,-46.04"/>
</g>
<!-- t8_tac_or_2&#45;&gt;t8_cwe_2 -->
<g id="edge3" class="edge">
<title>t8_tac_or_2&#45;&gt;t8_cwe_2</title>
<path fill="none" stroke="black" d="M407.5,-94.76C407.5,-94.76 407.5,-46.09 407.5,-46.09"/>
<polygon fill="black" stroke="black" points="411,-46.09 407.5,-36.09 404,-46.09 411,-46.09"/>
</g>
<!-- t8_tac_or_3&#45;&gt;t8_cwe_3 -->
<g id="edge8" class="edge">
<title>t8_tac_or_3&#45;&gt;t8_cwe_3</title>
<path fill="none" stroke="black" d="M610.5,-187.88C610.5,-187.88 610.5,-140.07 610.5,-140.07"/>
<polygon fill="black" stroke="black" points="614,-140.07 610.5,-130.07 607,-140.07 614,-140.07"/>
</g>
<!-- t8_tac_or_4 -->
<g id="node13" class="node">
<title>t8_tac_or_4</title>
<ellipse fill="#ffcccb" stroke="black" cx="822.5" cy="-112" rx="27" ry="18"/>
<text text-anchor="middle" x="822.5" y="-108.9" font-family="Helvetica,sans-Serif" font-size="12.00">OR</text>
</g>
<!-- t8_tac_or_3&#45;&gt;t8_tac_or_4 -->
<g id="edge9" class="edge">
<title>t8_tac_or_3&#45;&gt;t8_tac_or_4</title>
<path fill="none" stroke="black" d="M637.78,-206C695.04,-206 822.5,-206 822.5,-206 822.5,-206 822.5,-140.12 822.5,-140.12"/>
<polygon fill="black" stroke="black" points="826,-140.12 822.5,-130.12 819,-140.12 826,-140.12"/>
</g>
<!-- t8_tac_or_4&#45;&gt;t8_cwe_4 -->
<g id="edge6" class="edge">
<title>t8_tac_or_4&#45;&gt;t8_cwe_4</title>
<path fill="none" stroke="black" d="M822.5,-93.88C822.5,-93.88 822.5,-46.07 822.5,-46.07"/>
<polygon fill="black" stroke="black" points="826,-46.07 822.5,-36.07 819,-46.07 826,-46.07"/>
</g>
<!-- t8_tac_or_4&#45;&gt;t8_cwe_5 -->
<g id="edge7" class="edge">
<title>t8_tac_or_4&#45;&gt;t8_cwe_5</title>
<path fill="none" stroke="black" d="M849.6,-112C908.61,-112 1043.5,-112 1043.5,-112 1043.5,-112 1043.5,-46.12 1043.5,-46.12"/>
<polygon fill="black" stroke="black" points="1047,-46.12 1043.5,-36.12 1040,-46.12 1047,-46.12"/>
</g>
</g>
</svg>
