<?xml version="1.0" encoding="UTF-8" standalone="no"?>
<!DOCTYPE svg PUBLIC "-//W3C//DTD SVG 1.1//EN"
 "http://www.w3.org/Graphics/SVG/1.1/DTD/svg11.dtd">
<!-- Generated by graphviz version 2.43.0 (0)
 -->
<!-- Title: %3 Pages: 1 -->
<svg width="576pt" height="420pt"
 viewBox="0.00 0.00 576.00 420.00" xmlns="http://www.w3.org/2000/svg" xmlns:xlink="http://www.w3.org/1999/xlink">
<g id="graph0" class="graph" transform="scale(1 1) rotate(0) translate(4 416)">
<title>%3</title>
<polygon fill="white" stroke="transparent" points="-4,4 -4,-416 572,-416 572,4 -4,4"/>
<!-- root -->
<g id="node1" class="node">
<title>root</title>
<polygon fill="#ffd700" stroke="black" points="326,-412 189,-412 189,-376 326,-376 326,-412"/>
<text text-anchor="middle" x="257.5" y="-390.9" font-family="Helvetica,sans-Serif" font-size="12.00">Compromise Device</text>
</g>
<!-- t0_tactic -->
<g id="node2" class="node">
<title>t0_tactic</title>
<polygon fill="#98fb98" stroke="black" points="304.5,-318 210.5,-318 210.5,-282 304.5,-282 304.5,-318"/>
<text text-anchor="middle" x="257.5" y="-296.9" font-family="Helvetica,sans-Serif" font-size="12.00">Initial Access</text>
</g>
<!-- root&#45;&gt;t0_tactic -->
<g id="edge1" class="edge">
<title>root&#45;&gt;t0_tactic</title>
<path fill="none" stroke="black" d="M257.5,-375.88C257.5,-375.88 257.5,-328.07 257.5,-328.07"/>
<polygon fill="black" stroke="black" points="261,-328.07 257.5,-318.07 254,-328.07 261,-328.07"/>
</g>
<!-- t0_cwe_0 -->
<g id="node3" class="node">
<title>t0_cwe_0</title>
<polygon fill="#add8e6" stroke="black" points="351,-224 158,-224 158,-188 357,-188 357,-218 351,-224"/>
<polyline fill="none" stroke="black" points="351,-224 351,-218 "/>
<polyline fill="none" stroke="black" points="357,-218 351,-218 "/>
<text text-anchor="middle" x="257.5" y="-202.9" font-family="Helvetica,sans-Serif" font-size="12.00">Use of Hard&#45;coded Credentials</text>
</g>
<!-- t0_tactic&#45;&gt;t0_cwe_0 -->
<g id="edge5" class="edge">
<title>t0_tactic&#45;&gt;t0_cwe_0</title>
<path fill="none" stroke="black" d="M257.5,-281.88C257.5,-281.88 257.5,-234.07 257.5,-234.07"/>
<polygon fill="black" stroke="black" points="261,-234.07 257.5,-224.07 254,-234.07 261,-234.07"/>
</g>
<!-- t0_and_0 -->
<g id="node6" class="node">
<title>t0_and_0</title>
<ellipse fill="#ffcccb" stroke="black" cx="257.5" cy="-112" rx="27" ry="18"/>
<text text-anchor="middle" x="257.5" y="-108.9" font-family="Helvetica,sans-Serif" font-size="12.00">AND</text>
</g>
<!-- t0_cwe_0&#45;&gt;t0_and_0 -->
<g id="edge4" class="edge">
<title>t0_cwe_0&#45;&gt;t0_and_0</title>
<path fill="none" stroke="black" d="M257.5,-187.88C257.5,-187.88 257.5,-140.07 257.5,-140.07"/>
<polygon fill="black" stroke="black" points="261,-140.07 257.5,-130.07 254,-140.07 261,-140.07"/>
</g>
<!-- t0_sub_0 -->
<g id="node4" class="node">
<title>t0_sub_0</title>
<polygon fill="#fffacd" stroke="black" points="213,-36 0,-36 0,0 213,0 213,-36"/>
<text text-anchor="middle" x="106.5" y="-14.9" font-family="Helvetica,sans-Serif" font-size="12.00">Valid Accounts: Default Accounts</text>
</g>
<!-- t0_cap_0 -->
<g id="node5" class="node">
<title>t0_cap_0</title>
<polygon fill="#ffb6c1" stroke="black" points="568,-36 249,-36 249,0 568,0 568,-36"/>
<text text-anchor="middle" x="408.5" y="-14.9" font-family="Helvetica,sans-Serif" font-size="12.00">Try Common or Default Usernames and Passwords</text>
</g>
<!-- t0_and_0&#45;&gt;t0_sub_0 -->
<g id="edge2" class="edge">
<title>t0_and_0&#45;&gt;t0_sub_0</title>
<path fill="none" stroke="black" d="M239.75,-98.13C239.75,-71.98 239.75,-18 239.75,-18 239.75,-18 223.11,-18 223.11,-18"/>
<polygon fill="black" stroke="black" points="223.11,-14.5 213.11,-18 223.11,-21.5 223.11,-14.5"/>
</g>
<!-- t0_and_0&#45;&gt;t0_cap_0 -->
<g id="edge3" class="edge">
<title>t0_and_0&#45;&gt;t0_cap_0</title>
<path fill="none" stroke="black" d="M266.75,-94.76C266.75,-94.76 266.75,-46.09 266.75,-46.09"/>
<polygon fill="black" stroke="black" points="270.25,-46.09 266.75,-36.09 263.25,-46.09 270.25,-46.09"/>
</g>
</g>
</svg>
