<?xml version="1.0" encoding="UTF-8" standalone="no"?>
<!DOCTYPE svg PUBLIC "-//W3C//DTD SVG 1.1//EN"
 "http://www.w3.org/Graphics/SVG/1.1/DTD/svg11.dtd">
<!-- Generated by graphviz version 2.43.0 (0)
 -->
<!-- Title: %3 Pages: 1 -->
<svg width="1257pt" height="702pt"
 viewBox="0.00 0.00 1256.50 702.00" xmlns="http://www.w3.org/2000/svg" xmlns:xlink="http://www.w3.org/1999/xlink">
<g id="graph0" class="graph" transform="scale(1 1) rotate(0) translate(4 698)">
<title>%3</title>
<polygon fill="white" stroke="transparent" points="-4,4 -4,-698 1252.5,-698 1252.5,4 -4,4"/>
<!-- root -->
<g id="node1" class="node">
<title>root</title>
<polygon fill="#ffd700" stroke="black" points="465,-694 328,-694 328,-658 465,-658 465,-694"/>
<text text-anchor="middle" x="396.5" y="-672.9" font-family="Helvetica,sans-Serif" font-size="12.00">Compromise Device</text>
</g>
<!-- t7_tactic -->
<g id="node2" class="node">
<title>t7_tactic</title>
<polygon fill="#98fb98" stroke="black" points="434,-600 359,-600 359,-564 434,-564 434,-600"/>
<text text-anchor="middle" x="396.5" y="-578.9" font-family="Helvetica,sans-Serif" font-size="12.00">Collection</text>
</g>
<!-- root&#45;&gt;t7_tactic -->
<g id="edge1" class="edge">
<title>root&#45;&gt;t7_tactic</title>
<path fill="none" stroke="black" d="M396.5,-657.88C396.5,-657.88 396.5,-610.07 396.5,-610.07"/>
<polygon fill="black" stroke="black" points="400,-610.07 396.5,-600.07 393,-610.07 400,-610.07"/>
</g>
<!-- t7_tac_or_5 -->
<g id="node19" class="node">
<title>t7_tac_or_5</title>
<ellipse fill="#ffcccb" stroke="black" cx="396.5" cy="-488" rx="27" ry="18"/>
<text text-anchor="middle" x="396.5" y="-484.9" font-family="Helvetica,sans-Serif" font-size="12.00">OR</text>
</g>
<!-- t7_tactic&#45;&gt;t7_tac_or_5 -->
<g id="edge19" class="edge">
<title>t7_tactic&#45;&gt;t7_tac_or_5</title>
<path fill="none" stroke="black" d="M396.5,-563.88C396.5,-563.88 396.5,-516.07 396.5,-516.07"/>
<polygon fill="black" stroke="black" points="400,-516.07 396.5,-506.07 393,-516.07 400,-516.07"/>
</g>
<!-- t7_cwe_0 -->
<g id="node3" class="node">
<title>t7_cwe_0</title>
<polygon fill="#add8e6" stroke="black" points="426,-412 163,-412 163,-376 432,-376 432,-406 426,-412"/>
<polyline fill="none" stroke="black" points="426,-412 426,-406 "/>
<polyline fill="none" stroke="black" points="432,-406 426,-406 "/>
<text text-anchor="middle" x="297.5" y="-390.9" font-family="Helvetica,sans-Serif" font-size="12.00">Cleartext Storage of Sensitive Information</text>
</g>
<!-- t7_and_0 -->
<g id="node6" class="node">
<title>t7_and_0</title>
<ellipse fill="#ffcccb" stroke="black" cx="290.5" cy="-300" rx="27" ry="18"/>
<text text-anchor="middle" x="290.5" y="-296.9" font-family="Helvetica,sans-Serif" font-size="12.00">AND</text>
</g>
<!-- t7_cwe_0&#45;&gt;t7_and_0 -->
<g id="edge4" class="edge">
<title>t7_cwe_0&#45;&gt;t7_and_0</title>
<path fill="none" stroke="black" d="M290.5,-375.88C290.5,-375.88 290.5,-328.07 290.5,-328.07"/>
<polygon fill="black" stroke="black" points="294,-328.07 290.5,-318.07 287,-328.07 294,-328.07"/>
</g>
<!-- t7_tech_0 -->
<g id="node4" class="node">
<title>t7_tech_0</title>
<polygon fill="#90ee90" stroke="black" points="161,-224 0,-224 0,-188 161,-188 161,-224"/>
<text text-anchor="middle" x="80.5" y="-202.9" font-family="Helvetica,sans-Serif" font-size="12.00">Data from Local System</text>
</g>
<!-- t7_cap_0 -->
<g id="node5" class="node">
<title>t7_cap_0</title>
<polygon fill="#ffb6c1" stroke="black" points="421.5,-224 197.5,-224 197.5,-188 421.5,-188 421.5,-224"/>
<text text-anchor="middle" x="309.5" y="-202.9" font-family="Helvetica,sans-Serif" font-size="12.00">Retrieve Embedded Sensitive Data</text>
</g>
<!-- t7_and_0&#45;&gt;t7_tech_0 -->
<g id="edge2" class="edge">
<title>t7_and_0&#45;&gt;t7_tech_0</title>
<path fill="none" stroke="black" d="M263.48,-300C206.76,-300 80.5,-300 80.5,-300 80.5,-300 80.5,-234.12 80.5,-234.12"/>
<polygon fill="black" stroke="black" points="84,-234.12 80.5,-224.12 77,-234.12 84,-234.12"/>
</g>
<!-- t7_and_0&#45;&gt;t7_cap_0 -->
<g id="edge3" class="edge">
<title>t7_and_0&#45;&gt;t7_cap_0</title>
<path fill="none" stroke="black" d="M290.5,-281.88C290.5,-281.88 290.5,-234.07 290.5,-234.07"/>
<polygon fill="black" stroke="black" points="294,-234.07 290.5,-224.07 287,-234.07 294,-234.07"/>
</g>
<!-- t7_cwe_1 -->
<g id="node7" class="node">
<title>t7_cwe_1</title>
<polygon fill="#add8e6" stroke="black" points="645.5,-318 353.5,-318 353.5,-282 651.5,-282 651.5,-312 645.5,-318"/>
<polyline fill="none" stroke="black" points="645.5,-318 645.5,-312 "/>
<polyline fill="none" stroke="black" points="651.5,-312 645.5,-312 "/>
<text text-anchor="middle" x="502.5" y="-296.9" font-family="Helvetica,sans-Serif" font-size="12.00">Cleartext Transmission of Sensitive Information</text>
</g>
<!-- t7_and_1 -->
<g id="node10" class="node">
<title>t7_and_1</title>
<ellipse fill="#ffcccb" stroke="black" cx="502.5" cy="-206" rx="27" ry="18"/>
<text text-anchor="middle" x="502.5" y="-202.9" font-family="Helvetica,sans-Serif" font-size="12.00">AND</text>
</g>
<!-- t7_cwe_1&#45;&gt;t7_and_1 -->
<g id="edge7" class="edge">
<title>t7_cwe_1&#45;&gt;t7_and_1</title>
<path fill="none" stroke="black" d="M502.5,-281.88C502.5,-281.88 502.5,-234.07 502.5,-234.07"/>
<polygon fill="black" stroke="black" points="506,-234.07 502.5,-224.07 499,-234.07 506,-234.07"/>
</g>
<!-- t7_sub_1 -->
<g id="node8" class="node">
<title>t7_sub_1</title>
<polygon fill="#fffacd" stroke="black" points="327.5,-130 85.5,-130 85.5,-94 327.5,-94 327.5,-130"/>
<text text-anchor="middle" x="206.5" y="-108.9" font-family="Helvetica,sans-Serif" font-size="12.00">Input Capture: Credential API Hooking</text>
</g>
<!-- t7_cap_1 -->
<g id="node9" class="node">
<title>t7_cap_1</title>
<polygon fill="#ffb6c1" stroke="black" points="667.5,-130 363.5,-130 363.5,-94 667.5,-94 667.5,-130"/>
<text text-anchor="middle" x="515.5" y="-108.9" font-family="Helvetica,sans-Serif" font-size="12.00">Harvesting Information via API Event Monitoring</text>
</g>
<!-- t7_and_1&#45;&gt;t7_sub_1 -->
<g id="edge5" class="edge">
<title>t7_and_1&#45;&gt;t7_sub_1</title>
<path fill="none" stroke="black" d="M493.5,-188.77C493.5,-175.35 493.5,-159 493.5,-159 493.5,-159 262.5,-159 262.5,-159 262.5,-159 262.5,-140.04 262.5,-140.04"/>
<polygon fill="black" stroke="black" points="266,-140.04 262.5,-130.04 259,-140.04 266,-140.04"/>
</g>
<!-- t7_and_1&#45;&gt;t7_cap_1 -->
<g id="edge6" class="edge">
<title>t7_and_1&#45;&gt;t7_cap_1</title>
<path fill="none" stroke="black" d="M511.5,-188.76C511.5,-188.76 511.5,-140.09 511.5,-140.09"/>
<polygon fill="black" stroke="black" points="515,-140.09 511.5,-130.09 508,-140.09 515,-140.09"/>
</g>
<!-- t7_cwe_2 -->
<g id="node11" class="node">
<title>t7_cwe_2</title>
<polygon fill="#add8e6" stroke="black" points="845,-318 688,-318 688,-282 851,-282 851,-312 845,-318"/>
<polyline fill="none" stroke="black" points="845,-318 845,-312 "/>
<polyline fill="none" stroke="black" points="851,-312 845,-312 "/>
<text text-anchor="middle" x="769.5" y="-296.9" font-family="Helvetica,sans-Serif" font-size="12.00">Improper Authentication</text>
</g>
<!-- t7_cwe2_or_4 -->
<g id="node18" class="node">
<title>t7_cwe2_or_4</title>
<ellipse fill="#ffcccb" stroke="black" cx="769.5" cy="-206" rx="27" ry="18"/>
<text text-anchor="middle" x="769.5" y="-202.9" font-family="Helvetica,sans-Serif" font-size="12.00">OR</text>
</g>
<!-- t7_cwe_2&#45;&gt;t7_cwe2_or_4 -->
<g id="edge14" class="edge">
<title>t7_cwe_2&#45;&gt;t7_cwe2_or_4</title>
<path fill="none" stroke="black" d="M769.5,-281.88C769.5,-281.88 769.5,-234.07 769.5,-234.07"/>
<polygon fill="black" stroke="black" points="773,-234.07 769.5,-224.07 766,-234.07 773,-234.07"/>
</g>
<!-- t7_tech_2 -->
<g id="node12" class="node">
<title>t7_tech_2</title>
<polygon fill="#90ee90" stroke="black" points="660.5,-36 488.5,-36 488.5,0 660.5,0 660.5,-36"/>
<text text-anchor="middle" x="574.5" y="-14.9" font-family="Helvetica,sans-Serif" font-size="12.00">Browser Session Hijacking</text>
</g>
<!-- t7_cap_2 -->
<g id="node13" class="node">
<title>t7_cap_2</title>
<polygon fill="#ffb6c1" stroke="black" points="816,-36 697,-36 697,0 816,0 816,-36"/>
<text text-anchor="middle" x="756.5" y="-14.9" font-family="Helvetica,sans-Serif" font-size="12.00">Session Hijacking</text>
</g>
<!-- t7_and_2 -->
<g id="node14" class="node">
<title>t7_and_2</title>
<ellipse fill="#ffcccb" stroke="black" cx="756.5" cy="-112" rx="27" ry="18"/>
<text text-anchor="middle" x="756.5" y="-108.9" font-family="Helvetica,sans-Serif" font-size="12.00">AND</text>
</g>
<!-- t7_and_2&#45;&gt;t7_tech_2 -->
<g id="edge8" class="edge">
<title>t7_and_2&#45;&gt;t7_tech_2</title>
<path fill="none" stroke="black" d="M729.36,-112C711.92,-112 692.5,-112 692.5,-112 692.5,-112 692.5,-18 692.5,-18 692.5,-18 670.57,-18 670.57,-18"/>
<polygon fill="black" stroke="black" points="670.57,-14.5 660.57,-18 670.57,-21.5 670.57,-14.5"/>
</g>
<!-- t7_and_2&#45;&gt;t7_cap_2 -->
<g id="edge9" class="edge">
<title>t7_and_2&#45;&gt;t7_cap_2</title>
<path fill="none" stroke="black" d="M756.5,-93.88C756.5,-93.88 756.5,-46.07 756.5,-46.07"/>
<polygon fill="black" stroke="black" points="760,-46.07 756.5,-36.07 753,-46.07 760,-46.07"/>
</g>
<!-- t7_tech_3 -->
<g id="node15" class="node">
<title>t7_tech_3</title>
<polygon fill="#90ee90" stroke="black" points="1012.5,-36 852.5,-36 852.5,0 1012.5,0 1012.5,-36"/>
<text text-anchor="middle" x="932.5" y="-14.9" font-family="Helvetica,sans-Serif" font-size="12.00">Adversary&#45;in&#45;the&#45;Middle</text>
</g>
<!-- t7_cap_3 -->
<g id="node16" class="node">
<title>t7_cap_3</title>
<polygon fill="#ffb6c1" stroke="black" points="1248.5,-36 1048.5,-36 1048.5,0 1248.5,0 1248.5,-36"/>
<text text-anchor="middle" x="1148.5" y="-14.9" font-family="Helvetica,sans-Serif" font-size="12.00">Adversary in the Middle (AiTM)</text>
</g>
<!-- t7_and_3 -->
<g id="node17" class="node">
<title>t7_and_3</title>
<ellipse fill="#ffcccb" stroke="black" cx="932.5" cy="-112" rx="27" ry="18"/>
<text text-anchor="middle" x="932.5" y="-108.9" font-family="Helvetica,sans-Serif" font-size="12.00">AND</text>
</g>
<!-- t7_and_3&#45;&gt;t7_tech_3 -->
<g id="edge10" class="edge">
<title>t7_and_3&#45;&gt;t7_tech_3</title>
<path fill="none" stroke="black" d="M932.5,-93.88C932.5,-93.88 932.5,-46.07 932.5,-46.07"/>
<polygon fill="black" stroke="black" points="936,-46.07 932.5,-36.07 929,-46.07 936,-46.07"/>
</g>
<!-- t7_and_3&#45;&gt;t7_cap_3 -->
<g id="edge11" class="edge">
<title>t7_and_3&#45;&gt;t7_cap_3</title>
<path fill="none" stroke="black" d="M959.86,-112C1017.98,-112 1148.5,-112 1148.5,-112 1148.5,-112 1148.5,-46.12 1148.5,-46.12"/>
<polygon fill="black" stroke="black" points="1152,-46.12 1148.5,-36.12 1145,-46.12 1152,-46.12"/>
</g>
<!-- t7_cwe2_or_4&#45;&gt;t7_and_2 -->
<g id="edge12" class="edge">
<title>t7_cwe2_or_4&#45;&gt;t7_and_2</title>
<path fill="none" stroke="black" d="M763,-188.32C763,-188.32 763,-139.6 763,-139.6"/>
<polygon fill="black" stroke="black" points="766.5,-139.6 763,-129.6 759.5,-139.6 766.5,-139.6"/>
</g>
<!-- t7_cwe2_or_4&#45;&gt;t7_and_3 -->
<g id="edge13" class="edge">
<title>t7_cwe2_or_4&#45;&gt;t7_and_3</title>
<path fill="none" stroke="black" d="M790,-194.09C790,-168.8 790,-112 790,-112 790,-112 895.36,-112 895.36,-112"/>
<polygon fill="black" stroke="black" points="895.36,-115.5 905.36,-112 895.36,-108.5 895.36,-115.5"/>
</g>
<!-- t7_tac_or_5&#45;&gt;t7_cwe_0 -->
<g id="edge17" class="edge">
<title>t7_tac_or_5&#45;&gt;t7_cwe_0</title>
<path fill="none" stroke="black" d="M396.5,-469.88C396.5,-469.88 396.5,-422.07 396.5,-422.07"/>
<polygon fill="black" stroke="black" points="400,-422.07 396.5,-412.07 393,-422.07 400,-422.07"/>
</g>
<!-- t7_tac_or_6 -->
<g id="node20" class="node">
<title>t7_tac_or_6</title>
<ellipse fill="#ffcccb" stroke="black" cx="502.5" cy="-394" rx="27" ry="18"/>
<text text-anchor="middle" x="502.5" y="-390.9" font-family="Helvetica,sans-Serif" font-size="12.00">OR</text>
</g>
<!-- t7_tac_or_5&#45;&gt;t7_tac_or_6 -->
<g id="edge18" class="edge">
<title>t7_tac_or_5&#45;&gt;t7_tac_or_6</title>
<path fill="none" stroke="black" d="M423.52,-488C454.93,-488 502.5,-488 502.5,-488 502.5,-488 502.5,-422.12 502.5,-422.12"/>
<polygon fill="black" stroke="black" points="506,-422.12 502.5,-412.12 499,-422.12 506,-422.12"/>
</g>
<!-- t7_tac_or_6&#45;&gt;t7_cwe_1 -->
<g id="edge15" class="edge">
<title>t7_tac_or_6&#45;&gt;t7_cwe_1</title>
<path fill="none" stroke="black" d="M502.5,-375.88C502.5,-375.88 502.5,-328.07 502.5,-328.07"/>
<polygon fill="black" stroke="black" points="506,-328.07 502.5,-318.07 499,-328.07 506,-328.07"/>
</g>
<!-- t7_tac_or_6&#45;&gt;t7_cwe_2 -->
<g id="edge16" class="edge">
<title>t7_tac_or_6&#45;&gt;t7_cwe_2</title>
<path fill="none" stroke="black" d="M529.57,-394C597.45,-394 769.5,-394 769.5,-394 769.5,-394 769.5,-328.12 769.5,-328.12"/>
<polygon fill="black" stroke="black" points="773,-328.12 769.5,-318.12 766,-328.12 773,-328.12"/>
</g>
</g>
</svg>
