<?xml version="1.0" encoding="UTF-8" standalone="no"?>
<!DOCTYPE svg PUBLIC "-//W3C//DTD SVG 1.1//EN"
 "http://www.w3.org/Graphics/SVG/1.1/DTD/svg11.dtd">
<!-- Generated by graphviz version 2.43.0 (0)
 -->
<!-- Title: %3 Pages: 1 -->
<svg width="2660pt" height="702pt"
 viewBox="0.00 0.00 2659.50 702.00" xmlns="http://www.w3.org/2000/svg" xmlns:xlink="http://www.w3.org/1999/xlink">
<g id="graph0" class="graph" transform="scale(1 1) rotate(0) translate(4 698)">
<title>%3</title>
<polygon fill="white" stroke="transparent" points="-4,4 -4,-698 2655.5,-698 2655.5,4 -4,4"/>
<!-- root -->
<g id="node1" class="node">
<title>root</title>
<polygon fill="#ffd700" stroke="black" points="1123,-694 986,-694 986,-658 1123,-658 1123,-694"/>
<text text-anchor="middle" x="1054.5" y="-672.9" font-family="Helvetica,sans-Serif" font-size="12.00">Compromise Device</text>
</g>
<!-- t4_tactic -->
<g id="node2" class="node">
<title>t4_tactic</title>
<polygon fill="#98fb98" stroke="black" points="1115.5,-600 993.5,-600 993.5,-564 1115.5,-564 1115.5,-600"/>
<text text-anchor="middle" x="1054.5" y="-578.9" font-family="Helvetica,sans-Serif" font-size="12.00">Credential Access</text>
</g>
<!-- root&#45;&gt;t4_tactic -->
<g id="edge1" class="edge">
<title>root&#45;&gt;t4_tactic</title>
<path fill="none" stroke="black" d="M1054.5,-657.88C1054.5,-657.88 1054.5,-610.07 1054.5,-610.07"/>
<polygon fill="black" stroke="black" points="1058,-610.07 1054.5,-600.07 1051,-610.07 1058,-610.07"/>
</g>
<!-- t4_tac_or_8 -->
<g id="node27" class="node">
<title>t4_tac_or_8</title>
<ellipse fill="#ffcccb" stroke="black" cx="1054.5" cy="-488" rx="27" ry="18"/>
<text text-anchor="middle" x="1054.5" y="-484.9" font-family="Helvetica,sans-Serif" font-size="12.00">OR</text>
</g>
<!-- t4_tactic&#45;&gt;t4_tac_or_8 -->
<g id="edge28" class="edge">
<title>t4_tactic&#45;&gt;t4_tac_or_8</title>
<path fill="none" stroke="black" d="M1054.5,-563.88C1054.5,-563.88 1054.5,-516.07 1054.5,-516.07"/>
<polygon fill="black" stroke="black" points="1058,-516.07 1054.5,-506.07 1051,-516.07 1058,-516.07"/>
</g>
<!-- t4_cwe_0 -->
<g id="node3" class="node">
<title>t4_cwe_0</title>
<polygon fill="#add8e6" stroke="black" points="642,-318 379,-318 379,-282 648,-282 648,-312 642,-318"/>
<polyline fill="none" stroke="black" points="642,-318 642,-312 "/>
<polyline fill="none" stroke="black" points="648,-312 642,-312 "/>
<text text-anchor="middle" x="513.5" y="-296.9" font-family="Helvetica,sans-Serif" font-size="12.00">Cleartext Storage of Sensitive Information</text>
</g>
<!-- t4_and_0 -->
<g id="node6" class="node">
<title>t4_and_0</title>
<ellipse fill="#ffcccb" stroke="black" cx="379.5" cy="-206" rx="27" ry="18"/>
<text text-anchor="middle" x="379.5" y="-202.9" font-family="Helvetica,sans-Serif" font-size="12.00">AND</text>
</g>
<!-- t4_cwe_0&#45;&gt;t4_and_0 -->
<g id="edge4" class="edge">
<title>t4_cwe_0&#45;&gt;t4_and_0</title>
<path fill="none" stroke="black" d="M392.75,-281.88C392.75,-281.88 392.75,-231.88 392.75,-231.88"/>
<polygon fill="black" stroke="black" points="396.25,-231.88 392.75,-221.88 389.25,-231.88 396.25,-231.88"/>
</g>
<!-- t4_sub_0 -->
<g id="node4" class="node">
<title>t4_sub_0</title>
<polygon fill="#fffacd" stroke="black" points="231,-130 0,-130 0,-94 231,-94 231,-130"/>
<text text-anchor="middle" x="115.5" y="-108.9" font-family="Helvetica,sans-Serif" font-size="12.00">Unsecured Credentials: Private Keys</text>
</g>
<!-- t4_cap_0 -->
<g id="node5" class="node">
<title>t4_cap_0</title>
<polygon fill="#ffb6c1" stroke="black" points="491.5,-130 267.5,-130 267.5,-94 491.5,-94 491.5,-130"/>
<text text-anchor="middle" x="379.5" y="-108.9" font-family="Helvetica,sans-Serif" font-size="12.00">Retrieve Embedded Sensitive Data</text>
</g>
<!-- t4_and_0&#45;&gt;t4_sub_0 -->
<g id="edge2" class="edge">
<title>t4_and_0&#45;&gt;t4_sub_0</title>
<path fill="none" stroke="black" d="M352.24,-206C284.79,-206 115.5,-206 115.5,-206 115.5,-206 115.5,-140.12 115.5,-140.12"/>
<polygon fill="black" stroke="black" points="119,-140.12 115.5,-130.12 112,-140.12 119,-140.12"/>
</g>
<!-- t4_and_0&#45;&gt;t4_cap_0 -->
<g id="edge3" class="edge">
<title>t4_and_0&#45;&gt;t4_cap_0</title>
<path fill="none" stroke="black" d="M379.5,-187.88C379.5,-187.88 379.5,-140.07 379.5,-140.07"/>
<polygon fill="black" stroke="black" points="383,-140.07 379.5,-130.07 376,-140.07 383,-140.07"/>
</g>
<!-- t4_cwe_1 -->
<g id="node7" class="node">
<title>t4_cwe_1</title>
<polygon fill="#add8e6" stroke="black" points="1006,-318 813,-318 813,-282 1012,-282 1012,-312 1006,-318"/>
<polyline fill="none" stroke="black" points="1006,-318 1006,-312 "/>
<polyline fill="none" stroke="black" points="1012,-312 1006,-312 "/>
<text text-anchor="middle" x="912.5" y="-296.9" font-family="Helvetica,sans-Serif" font-size="12.00">Use of Hard&#45;coded Credentials</text>
</g>
<!-- t4_and_1 -->
<g id="node10" class="node">
<title>t4_and_1</title>
<ellipse fill="#ffcccb" stroke="black" cx="912.5" cy="-206" rx="27" ry="18"/>
<text text-anchor="middle" x="912.5" y="-202.9" font-family="Helvetica,sans-Serif" font-size="12.00">AND</text>
</g>
<!-- t4_cwe_1&#45;&gt;t4_and_1 -->
<g id="edge7" class="edge">
<title>t4_cwe_1&#45;&gt;t4_and_1</title>
<path fill="none" stroke="black" d="M912.5,-281.88C912.5,-281.88 912.5,-234.07 912.5,-234.07"/>
<polygon fill="black" stroke="black" points="916,-234.07 912.5,-224.07 909,-234.07 916,-234.07"/>
</g>
<!-- t4_sub_1 -->
<g id="node8" class="node">
<title>t4_sub_1</title>
<polygon fill="#fffacd" stroke="black" points="797,-130 528,-130 528,-94 797,-94 797,-130"/>
<text text-anchor="middle" x="662.5" y="-108.9" font-family="Helvetica,sans-Serif" font-size="12.00">Unsecured Credentials: Credentials In Files</text>
</g>
<!-- t4_cap_1 -->
<g id="node9" class="node">
<title>t4_cap_1</title>
<polygon fill="#ffb6c1" stroke="black" points="1129.5,-130 833.5,-130 833.5,-94 1129.5,-94 1129.5,-130"/>
<text text-anchor="middle" x="981.5" y="-108.9" font-family="Helvetica,sans-Serif" font-size="12.00">Read Sensitive Constants Within an Executable</text>
</g>
<!-- t4_and_1&#45;&gt;t4_sub_1 -->
<g id="edge5" class="edge">
<title>t4_and_1&#45;&gt;t4_sub_1</title>
<path fill="none" stroke="black" d="M885.28,-206C832.74,-206 722.5,-206 722.5,-206 722.5,-206 722.5,-140.12 722.5,-140.12"/>
<polygon fill="black" stroke="black" points="726,-140.12 722.5,-130.12 719,-140.12 726,-140.12"/>
</g>
<!-- t4_and_1&#45;&gt;t4_cap_1 -->
<g id="edge6" class="edge">
<title>t4_and_1&#45;&gt;t4_cap_1</title>
<path fill="none" stroke="black" d="M912.5,-187.88C912.5,-187.88 912.5,-140.07 912.5,-140.07"/>
<polygon fill="black" stroke="black" points="916,-140.07 912.5,-130.07 909,-140.07 916,-140.07"/>
</g>
<!-- t4_cwe_2 -->
<g id="node11" class="node">
<title>t4_cwe_2</title>
<polygon fill="#add8e6" stroke="black" points="1404.5,-318 1112.5,-318 1112.5,-282 1410.5,-282 1410.5,-312 1404.5,-318"/>
<polyline fill="none" stroke="black" points="1404.5,-318 1404.5,-312 "/>
<polyline fill="none" stroke="black" points="1410.5,-312 1404.5,-312 "/>
<text text-anchor="middle" x="1261.5" y="-296.9" font-family="Helvetica,sans-Serif" font-size="12.00">Cleartext Transmission of Sensitive Information</text>
</g>
<!-- t4_cwe2_or_4 -->
<g id="node18" class="node">
<title>t4_cwe2_or_4</title>
<ellipse fill="#ffcccb" stroke="black" cx="1261.5" cy="-206" rx="27" ry="18"/>
<text text-anchor="middle" x="1261.5" y="-202.9" font-family="Helvetica,sans-Serif" font-size="12.00">OR</text>
</g>
<!-- t4_cwe_2&#45;&gt;t4_cwe2_or_4 -->
<g id="edge14" class="edge">
<title>t4_cwe_2&#45;&gt;t4_cwe2_or_4</title>
<path fill="none" stroke="black" d="M1261.5,-281.88C1261.5,-281.88 1261.5,-234.07 1261.5,-234.07"/>
<polygon fill="black" stroke="black" points="1265,-234.07 1261.5,-224.07 1258,-234.07 1265,-234.07"/>
</g>
<!-- t4_sub_2 -->
<g id="node12" class="node">
<title>t4_sub_2</title>
<polygon fill="#fffacd" stroke="black" points="926.5,-36 684.5,-36 684.5,0 926.5,0 926.5,-36"/>
<text text-anchor="middle" x="805.5" y="-14.9" font-family="Helvetica,sans-Serif" font-size="12.00">Input Capture: Credential API Hooking</text>
</g>
<!-- t4_cap_2 -->
<g id="node13" class="node">
<title>t4_cap_2</title>
<polygon fill="#ffb6c1" stroke="black" points="1266.5,-36 962.5,-36 962.5,0 1266.5,0 1266.5,-36"/>
<text text-anchor="middle" x="1114.5" y="-14.9" font-family="Helvetica,sans-Serif" font-size="12.00">Harvesting Information via API Event Monitoring</text>
</g>
<!-- t4_and_2 -->
<g id="node14" class="node">
<title>t4_and_2</title>
<ellipse fill="#ffcccb" stroke="black" cx="1192.5" cy="-112" rx="27" ry="18"/>
<text text-anchor="middle" x="1192.5" y="-108.9" font-family="Helvetica,sans-Serif" font-size="12.00">AND</text>
</g>
<!-- t4_and_2&#45;&gt;t4_sub_2 -->
<g id="edge8" class="edge">
<title>t4_and_2&#45;&gt;t4_sub_2</title>
<path fill="none" stroke="black" d="M1183.5,-94.77C1183.5,-81.35 1183.5,-65 1183.5,-65 1183.5,-65 880,-65 880,-65 880,-65 880,-46.04 880,-46.04"/>
<polygon fill="black" stroke="black" points="883.5,-46.04 880,-36.04 876.5,-46.04 883.5,-46.04"/>
</g>
<!-- t4_and_2&#45;&gt;t4_cap_2 -->
<g id="edge9" class="edge">
<title>t4_and_2&#45;&gt;t4_cap_2</title>
<path fill="none" stroke="black" d="M1201.5,-94.76C1201.5,-94.76 1201.5,-46.09 1201.5,-46.09"/>
<polygon fill="black" stroke="black" points="1205,-46.09 1201.5,-36.09 1198,-46.09 1205,-46.09"/>
</g>
<!-- t4_tech_3 -->
<g id="node15" class="node">
<title>t4_tech_3</title>
<polygon fill="#90ee90" stroke="black" points="1418,-36 1303,-36 1303,0 1418,0 1418,-36"/>
<text text-anchor="middle" x="1360.5" y="-14.9" font-family="Helvetica,sans-Serif" font-size="12.00">Network Sniffing</text>
</g>
<!-- t4_cap_3 -->
<g id="node16" class="node">
<title>t4_cap_3</title>
<polygon fill="#ffb6c1" stroke="black" points="1601,-36 1454,-36 1454,0 1601,0 1601,-36"/>
<text text-anchor="middle" x="1527.5" y="-14.9" font-family="Helvetica,sans-Serif" font-size="12.00">Sniff Application Code</text>
</g>
<!-- t4_and_3 -->
<g id="node17" class="node">
<title>t4_and_3</title>
<ellipse fill="#ffcccb" stroke="black" cx="1360.5" cy="-112" rx="27" ry="18"/>
<text text-anchor="middle" x="1360.5" y="-108.9" font-family="Helvetica,sans-Serif" font-size="12.00">AND</text>
</g>
<!-- t4_and_3&#45;&gt;t4_tech_3 -->
<g id="edge10" class="edge">
<title>t4_and_3&#45;&gt;t4_tech_3</title>
<path fill="none" stroke="black" d="M1360.5,-93.88C1360.5,-93.88 1360.5,-46.07 1360.5,-46.07"/>
<polygon fill="black" stroke="black" points="1364,-46.07 1360.5,-36.07 1357,-46.07 1364,-46.07"/>
</g>
<!-- t4_and_3&#45;&gt;t4_cap_3 -->
<g id="edge11" class="edge">
<title>t4_and_3&#45;&gt;t4_cap_3</title>
<path fill="none" stroke="black" d="M1386.23,-118C1433.07,-118 1527.5,-118 1527.5,-118 1527.5,-118 1527.5,-46.34 1527.5,-46.34"/>
<polygon fill="black" stroke="black" points="1531,-46.34 1527.5,-36.34 1524,-46.34 1531,-46.34"/>
</g>
<!-- t4_cwe2_or_4&#45;&gt;t4_and_2 -->
<g id="edge12" class="edge">
<title>t4_cwe2_or_4&#45;&gt;t4_and_2</title>
<path fill="none" stroke="black" d="M1250.5,-189.49C1250.5,-161.08 1250.5,-106 1250.5,-106 1250.5,-106 1228.11,-106 1228.11,-106"/>
<polygon fill="black" stroke="black" points="1228.11,-102.5 1218.11,-106 1228.11,-109.5 1228.11,-102.5"/>
</g>
<!-- t4_cwe2_or_4&#45;&gt;t4_and_3 -->
<g id="edge13" class="edge">
<title>t4_cwe2_or_4&#45;&gt;t4_and_3</title>
<path fill="none" stroke="black" d="M1277.5,-191.47C1277.5,-166.47 1277.5,-118 1277.5,-118 1277.5,-118 1324.69,-118 1324.69,-118"/>
<polygon fill="black" stroke="black" points="1324.69,-121.5 1334.69,-118 1324.69,-114.5 1324.69,-121.5"/>
</g>
<!-- t4_cwe_3 -->
<g id="node19" class="node">
<title>t4_cwe_3</title>
<polygon fill="#add8e6" stroke="black" points="1841,-318 1684,-318 1684,-282 1847,-282 1847,-312 1841,-318"/>
<polyline fill="none" stroke="black" points="1841,-318 1841,-312 "/>
<polyline fill="none" stroke="black" points="1847,-312 1841,-312 "/>
<text text-anchor="middle" x="1765.5" y="-296.9" font-family="Helvetica,sans-Serif" font-size="12.00">Improper Authentication</text>
</g>
<!-- t4_cwe3_or_7 -->
<g id="node26" class="node">
<title>t4_cwe3_or_7</title>
<ellipse fill="#ffcccb" stroke="black" cx="1848.5" cy="-206" rx="27" ry="18"/>
<text text-anchor="middle" x="1848.5" y="-202.9" font-family="Helvetica,sans-Serif" font-size="12.00">OR</text>
</g>
<!-- t4_cwe_3&#45;&gt;t4_cwe3_or_7 -->
<g id="edge21" class="edge">
<title>t4_cwe_3&#45;&gt;t4_cwe3_or_7</title>
<path fill="none" stroke="black" d="M1834.25,-281.88C1834.25,-281.88 1834.25,-231.57 1834.25,-231.57"/>
<polygon fill="black" stroke="black" points="1837.75,-231.57 1834.25,-221.57 1830.75,-231.57 1837.75,-231.57"/>
</g>
<!-- t4_tech_5 -->
<g id="node20" class="node">
<title>t4_tech_5</title>
<polygon fill="#90ee90" stroke="black" points="1752,-36 1637,-36 1637,0 1752,0 1752,-36"/>
<text text-anchor="middle" x="1694.5" y="-14.9" font-family="Helvetica,sans-Serif" font-size="12.00">Network Sniffing</text>
</g>
<!-- t4_cap_5 -->
<g id="node21" class="node">
<title>t4_cap_5</title>
<polygon fill="#ffb6c1" stroke="black" points="2219,-36 1788,-36 1788,0 2219,0 2219,-36"/>
<text text-anchor="middle" x="2003.5" y="-14.9" font-family="Helvetica,sans-Serif" font-size="12.00">Utilizing REST&#39;s Trust in the System Resource to Obtain Sensitive Data</text>
</g>
<!-- t4_and_5 -->
<g id="node22" class="node">
<title>t4_and_5</title>
<ellipse fill="#ffcccb" stroke="black" cx="1848.5" cy="-112" rx="27" ry="18"/>
<text text-anchor="middle" x="1848.5" y="-108.9" font-family="Helvetica,sans-Serif" font-size="12.00">AND</text>
</g>
<!-- t4_and_5&#45;&gt;t4_tech_5 -->
<g id="edge15" class="edge">
<title>t4_and_5&#45;&gt;t4_tech_5</title>
<path fill="none" stroke="black" d="M1823.03,-106C1785.05,-106 1718,-106 1718,-106 1718,-106 1718,-46.23 1718,-46.23"/>
<polygon fill="black" stroke="black" points="1721.5,-46.23 1718,-36.23 1714.5,-46.23 1721.5,-46.23"/>
</g>
<!-- t4_and_5&#45;&gt;t4_cap_5 -->
<g id="edge16" class="edge">
<title>t4_and_5&#45;&gt;t4_cap_5</title>
<path fill="none" stroke="black" d="M1848.5,-93.88C1848.5,-93.88 1848.5,-46.07 1848.5,-46.07"/>
<polygon fill="black" stroke="black" points="1852,-46.07 1848.5,-36.07 1845,-46.07 1852,-46.07"/>
</g>
<!-- t4_tech_6 -->
<g id="node23" class="node">
<title>t4_tech_6</title>
<polygon fill="#90ee90" stroke="black" points="2415.5,-36 2255.5,-36 2255.5,0 2415.5,0 2415.5,-36"/>
<text text-anchor="middle" x="2335.5" y="-14.9" font-family="Helvetica,sans-Serif" font-size="12.00">Adversary&#45;in&#45;the&#45;Middle</text>
</g>
<!-- t4_cap_6 -->
<g id="node24" class="node">
<title>t4_cap_6</title>
<polygon fill="#ffb6c1" stroke="black" points="2651.5,-36 2451.5,-36 2451.5,0 2651.5,0 2651.5,-36"/>
<text text-anchor="middle" x="2551.5" y="-14.9" font-family="Helvetica,sans-Serif" font-size="12.00">Adversary in the Middle (AiTM)</text>
</g>
<!-- t4_and_6 -->
<g id="node25" class="node">
<title>t4_and_6</title>
<ellipse fill="#ffcccb" stroke="black" cx="2335.5" cy="-112" rx="27" ry="18"/>
<text text-anchor="middle" x="2335.5" y="-108.9" font-family="Helvetica,sans-Serif" font-size="12.00">AND</text>
</g>
<!-- t4_and_6&#45;&gt;t4_tech_6 -->
<g id="edge17" class="edge">
<title>t4_and_6&#45;&gt;t4_tech_6</title>
<path fill="none" stroke="black" d="M2335.5,-93.88C2335.5,-93.88 2335.5,-46.07 2335.5,-46.07"/>
<polygon fill="black" stroke="black" points="2339,-46.07 2335.5,-36.07 2332,-46.07 2339,-46.07"/>
</g>
<!-- t4_and_6&#45;&gt;t4_cap_6 -->
<g id="edge18" class="edge">
<title>t4_and_6&#45;&gt;t4_cap_6</title>
<path fill="none" stroke="black" d="M2362.86,-112C2420.98,-112 2551.5,-112 2551.5,-112 2551.5,-112 2551.5,-46.12 2551.5,-46.12"/>
<polygon fill="black" stroke="black" points="2555,-46.12 2551.5,-36.12 2548,-46.12 2555,-46.12"/>
</g>
<!-- t4_cwe3_or_7&#45;&gt;t4_and_5 -->
<g id="edge19" class="edge">
<title>t4_cwe3_or_7&#45;&gt;t4_and_5</title>
<path fill="none" stroke="black" d="M1848.5,-187.88C1848.5,-187.88 1848.5,-140.07 1848.5,-140.07"/>
<polygon fill="black" stroke="black" points="1852,-140.07 1848.5,-130.07 1845,-140.07 1852,-140.07"/>
</g>
<!-- t4_cwe3_or_7&#45;&gt;t4_and_6 -->
<g id="edge20" class="edge">
<title>t4_cwe3_or_7&#45;&gt;t4_and_6</title>
<path fill="none" stroke="black" d="M1875.73,-206C1978.29,-206 2335.5,-206 2335.5,-206 2335.5,-206 2335.5,-140.12 2335.5,-140.12"/>
<polygon fill="black" stroke="black" points="2339,-140.12 2335.5,-130.12 2332,-140.12 2339,-140.12"/>
</g>
<!-- t4_tac_or_9 -->
<g id="node28" class="node">
<title>t4_tac_or_9</title>
<ellipse fill="#ffcccb" stroke="black" cx="912.5" cy="-394" rx="27" ry="18"/>
<text text-anchor="middle" x="912.5" y="-390.9" font-family="Helvetica,sans-Serif" font-size="12.00">OR</text>
</g>
<!-- t4_tac_or_8&#45;&gt;t4_tac_or_9 -->
<g id="edge26" class="edge">
<title>t4_tac_or_8&#45;&gt;t4_tac_or_9</title>
<path fill="none" stroke="black" d="M1045.5,-470.58C1045.5,-441.93 1045.5,-388 1045.5,-388 1045.5,-388 948.14,-388 948.14,-388"/>
<polygon fill="black" stroke="black" points="948.14,-384.5 938.14,-388 948.14,-391.5 948.14,-384.5"/>
</g>
<!-- t4_tac_or_10 -->
<g id="node29" class="node">
<title>t4_tac_or_10</title>
<ellipse fill="#ffcccb" stroke="black" cx="1261.5" cy="-394" rx="27" ry="18"/>
<text text-anchor="middle" x="1261.5" y="-390.9" font-family="Helvetica,sans-Serif" font-size="12.00">OR</text>
</g>
<!-- t4_tac_or_8&#45;&gt;t4_tac_or_10 -->
<g id="edge27" class="edge">
<title>t4_tac_or_8&#45;&gt;t4_tac_or_10</title>
<path fill="none" stroke="black" d="M1063.5,-470.61C1063.5,-444.97 1063.5,-400 1063.5,-400 1063.5,-400 1226.02,-400 1226.02,-400"/>
<polygon fill="black" stroke="black" points="1226.02,-403.5 1236.02,-400 1226.02,-396.5 1226.02,-403.5"/>
</g>
<!-- t4_tac_or_9&#45;&gt;t4_cwe_0 -->
<g id="edge22" class="edge">
<title>t4_tac_or_9&#45;&gt;t4_cwe_0</title>
<path fill="none" stroke="black" d="M885.39,-394C795.58,-394 513.5,-394 513.5,-394 513.5,-394 513.5,-328.12 513.5,-328.12"/>
<polygon fill="black" stroke="black" points="517,-328.12 513.5,-318.12 510,-328.12 517,-328.12"/>
</g>
<!-- t4_tac_or_9&#45;&gt;t4_cwe_1 -->
<g id="edge23" class="edge">
<title>t4_tac_or_9&#45;&gt;t4_cwe_1</title>
<path fill="none" stroke="black" d="M912.5,-375.88C912.5,-375.88 912.5,-328.07 912.5,-328.07"/>
<polygon fill="black" stroke="black" points="916,-328.07 912.5,-318.07 909,-328.07 916,-328.07"/>
</g>
<!-- t4_tac_or_10&#45;&gt;t4_cwe_2 -->
<g id="edge24" class="edge">
<title>t4_tac_or_10&#45;&gt;t4_cwe_2</title>
<path fill="none" stroke="black" d="M1261.5,-375.88C1261.5,-375.88 1261.5,-328.07 1261.5,-328.07"/>
<polygon fill="black" stroke="black" points="1265,-328.07 1261.5,-318.07 1258,-328.07 1265,-328.07"/>
</g>
<!-- t4_tac_or_10&#45;&gt;t4_cwe_3 -->
<g id="edge25" class="edge">
<title>t4_tac_or_10&#45;&gt;t4_cwe_3</title>
<path fill="none" stroke="black" d="M1288.6,-394C1393.28,-394 1765.5,-394 1765.5,-394 1765.5,-394 1765.5,-328.12 1765.5,-328.12"/>
<polygon fill="black" stroke="black" points="1769,-328.12 1765.5,-318.12 1762,-328.12 1769,-328.12"/>
</g>
</g>
</svg>
