<?xml version="1.0" encoding="UTF-8" standalone="no"?>
<!DOCTYPE svg PUBLIC "-//W3C//DTD SVG 1.1//EN"
 "http://www.w3.org/Graphics/SVG/1.1/DTD/svg11.dtd">
<!-- Generated by graphviz version 2.43.0 (0)
 -->
<!-- Title: %3 Pages: 1 -->
<svg width="3419pt" height="702pt"
 viewBox="0.00 0.00 3419.00 702.00" xmlns="http://www.w3.org/2000/svg" xmlns:xlink="http://www.w3.org/1999/xlink">
<g id="graph0" class="graph" transform="scale(1 1) rotate(0) translate(4 698)">
<title>%3</title>
<polygon fill="white" stroke="transparent" points="-4,4 -4,-698 3415,-698 3415,4 -4,4"/>
<!-- root -->
<g id="node1" class="node">
<title>root</title>
<polygon fill="#ffd700" stroke="black" points="2481,-694 2344,-694 2344,-658 2481,-658 2481,-694"/>
<text text-anchor="middle" x="2412.5" y="-672.9" font-family="Helvetica,sans-Serif" font-size="12.00">Compromise Device</text>
</g>
<!-- t1_tactic -->
<g id="node2" class="node">
<title>t1_tactic</title>
<polygon fill="#98fb98" stroke="black" points="2455,-600 2370,-600 2370,-564 2455,-564 2455,-600"/>
<text text-anchor="middle" x="2412.5" y="-578.9" font-family="Helvetica,sans-Serif" font-size="12.00">Persistence</text>
</g>
<!-- root&#45;&gt;t1_tactic -->
<g id="edge1" class="edge">
<title>root&#45;&gt;t1_tactic</title>
<path fill="none" stroke="black" d="M2412.5,-657.88C2412.5,-657.88 2412.5,-610.07 2412.5,-610.07"/>
<polygon fill="black" stroke="black" points="2416,-610.07 2412.5,-600.07 2409,-610.07 2416,-610.07"/>
</g>
<!-- t1_tac_or_9 -->
<g id="node27" class="node">
<title>t1_tac_or_9</title>
<ellipse fill="#ffcccb" stroke="black" cx="2412.5" cy="-488" rx="27" ry="18"/>
<text text-anchor="middle" x="2412.5" y="-484.9" font-family="Helvetica,sans-Serif" font-size="12.00">OR</text>
</g>
<!-- t1_tactic&#45;&gt;t1_tac_or_9 -->
<g id="edge27" class="edge">
<title>t1_tactic&#45;&gt;t1_tac_or_9</title>
<path fill="none" stroke="black" d="M2412.5,-563.88C2412.5,-563.88 2412.5,-516.07 2412.5,-516.07"/>
<polygon fill="black" stroke="black" points="2416,-516.07 2412.5,-506.07 2409,-516.07 2416,-516.07"/>
</g>
<!-- t1_cwe_0 -->
<g id="node3" class="node">
<title>t1_cwe_0</title>
<polygon fill="#add8e6" stroke="black" points="2459,-412 2130,-412 2130,-376 2465,-376 2465,-406 2459,-412"/>
<polyline fill="none" stroke="black" points="2459,-412 2459,-406 "/>
<polyline fill="none" stroke="black" points="2465,-406 2459,-406 "/>
<text text-anchor="middle" x="2297.5" y="-390.9" font-family="Helvetica,sans-Serif" font-size="12.00">Incorrect Permission Assignment for Critical Resource</text>
</g>
<!-- t1_cwe0_or_4 -->
<g id="node16" class="node">
<title>t1_cwe0_or_4</title>
<ellipse fill="#ffcccb" stroke="black" cx="2110.5" cy="-300" rx="27" ry="18"/>
<text text-anchor="middle" x="2110.5" y="-296.9" font-family="Helvetica,sans-Serif" font-size="12.00">OR</text>
</g>
<!-- t1_cwe_0&#45;&gt;t1_cwe0_or_4 -->
<g id="edge16" class="edge">
<title>t1_cwe_0&#45;&gt;t1_cwe0_or_4</title>
<path fill="none" stroke="black" d="M2133.75,-375.88C2133.75,-375.88 2133.75,-319.47 2133.75,-319.47"/>
<polygon fill="black" stroke="black" points="2137.25,-319.47 2133.75,-309.47 2130.25,-319.47 2137.25,-319.47"/>
</g>
<!-- t1_sub_0 -->
<g id="node4" class="node">
<title>t1_sub_0</title>
<polygon fill="#fffacd" stroke="black" points="363,-36 0,-36 0,0 363,0 363,-36"/>
<text text-anchor="middle" x="181.5" y="-14.9" font-family="Helvetica,sans-Serif" font-size="12.00">Hijack Execution Flow: Services File Permissions Weakness</text>
</g>
<!-- t1_cap_0 -->
<g id="node5" class="node">
<title>t1_cap_0</title>
<polygon fill="#ffb6c1" stroke="black" points="758,-36 399,-36 399,0 758,0 758,-36"/>
<text text-anchor="middle" x="578.5" y="-14.9" font-family="Helvetica,sans-Serif" font-size="12.00">Accessing Functionality Not Properly Constrained by ACLs</text>
</g>
<!-- t1_and_0 -->
<g id="node6" class="node">
<title>t1_and_0</title>
<ellipse fill="#ffcccb" stroke="black" cx="578.5" cy="-112" rx="27" ry="18"/>
<text text-anchor="middle" x="578.5" y="-108.9" font-family="Helvetica,sans-Serif" font-size="12.00">AND</text>
</g>
<!-- t1_and_0&#45;&gt;t1_sub_0 -->
<g id="edge2" class="edge">
<title>t1_and_0&#45;&gt;t1_sub_0</title>
<path fill="none" stroke="black" d="M551.21,-112C461.52,-112 181.5,-112 181.5,-112 181.5,-112 181.5,-46.12 181.5,-46.12"/>
<polygon fill="black" stroke="black" points="185,-46.12 181.5,-36.12 178,-46.12 185,-46.12"/>
</g>
<!-- t1_and_0&#45;&gt;t1_cap_0 -->
<g id="edge3" class="edge">
<title>t1_and_0&#45;&gt;t1_cap_0</title>
<path fill="none" stroke="black" d="M578.5,-93.88C578.5,-93.88 578.5,-46.07 578.5,-46.07"/>
<polygon fill="black" stroke="black" points="582,-46.07 578.5,-36.07 575,-46.07 582,-46.07"/>
</g>
<!-- t1_sub_1 -->
<g id="node7" class="node">
<title>t1_sub_1</title>
<polygon fill="#fffacd" stroke="black" points="1225,-36 794,-36 794,0 1225,0 1225,-36"/>
<text text-anchor="middle" x="1009.5" y="-14.9" font-family="Helvetica,sans-Serif" font-size="12.00">Hijack Execution Flow: Executable Installer File Permissions Weakness</text>
</g>
<!-- t1_cap_1 -->
<g id="node8" class="node">
<title>t1_cap_1</title>
<polygon fill="#ffb6c1" stroke="black" points="1620,-36 1261,-36 1261,0 1620,0 1620,-36"/>
<text text-anchor="middle" x="1440.5" y="-14.9" font-family="Helvetica,sans-Serif" font-size="12.00">Accessing Functionality Not Properly Constrained by ACLs</text>
</g>
<!-- t1_and_1 -->
<g id="node9" class="node">
<title>t1_and_1</title>
<ellipse fill="#ffcccb" stroke="black" cx="1224.5" cy="-112" rx="27" ry="18"/>
<text text-anchor="middle" x="1224.5" y="-108.9" font-family="Helvetica,sans-Serif" font-size="12.00">AND</text>
</g>
<!-- t1_and_1&#45;&gt;t1_sub_1 -->
<g id="edge4" class="edge">
<title>t1_and_1&#45;&gt;t1_sub_1</title>
<path fill="none" stroke="black" d="M1211.25,-96.05C1211.25,-96.05 1211.25,-46.28 1211.25,-46.28"/>
<polygon fill="black" stroke="black" points="1214.75,-46.28 1211.25,-36.28 1207.75,-46.28 1214.75,-46.28"/>
</g>
<!-- t1_and_1&#45;&gt;t1_cap_1 -->
<g id="edge5" class="edge">
<title>t1_and_1&#45;&gt;t1_cap_1</title>
<path fill="none" stroke="black" d="M1238.25,-96.48C1238.25,-69.78 1238.25,-18 1238.25,-18 1238.25,-18 1250.67,-18 1250.67,-18"/>
<polygon fill="black" stroke="black" points="1250.67,-21.5 1260.67,-18 1250.67,-14.5 1250.67,-21.5"/>
</g>
<!-- t1_sub_2 -->
<g id="node10" class="node">
<title>t1_sub_2</title>
<polygon fill="#fffacd" stroke="black" points="1980.5,-36 1656.5,-36 1656.5,0 1980.5,0 1980.5,-36"/>
<text text-anchor="middle" x="1818.5" y="-14.9" font-family="Helvetica,sans-Serif" font-size="12.00">Server Software Component: Terminal Services DLL</text>
</g>
<!-- t1_cap_2 -->
<g id="node11" class="node">
<title>t1_cap_2</title>
<polygon fill="#ffb6c1" stroke="black" points="2132.5,-36 2016.5,-36 2016.5,0 2132.5,0 2132.5,-36"/>
<text text-anchor="middle" x="2074.5" y="-14.9" font-family="Helvetica,sans-Serif" font-size="12.00">Replace Binaries</text>
</g>
<!-- t1_and_2 -->
<g id="node12" class="node">
<title>t1_and_2</title>
<ellipse fill="#ffcccb" stroke="black" cx="2074.5" cy="-112" rx="27" ry="18"/>
<text text-anchor="middle" x="2074.5" y="-108.9" font-family="Helvetica,sans-Serif" font-size="12.00">AND</text>
</g>
<!-- t1_and_2&#45;&gt;t1_sub_2 -->
<g id="edge6" class="edge">
<title>t1_and_2&#45;&gt;t1_sub_2</title>
<path fill="none" stroke="black" d="M2047.1,-112C1981.06,-112 1818.5,-112 1818.5,-112 1818.5,-112 1818.5,-46.12 1818.5,-46.12"/>
<polygon fill="black" stroke="black" points="1822,-46.12 1818.5,-36.12 1815,-46.12 1822,-46.12"/>
</g>
<!-- t1_and_2&#45;&gt;t1_cap_2 -->
<g id="edge7" class="edge">
<title>t1_and_2&#45;&gt;t1_cap_2</title>
<path fill="none" stroke="black" d="M2074.5,-93.88C2074.5,-93.88 2074.5,-46.07 2074.5,-46.07"/>
<polygon fill="black" stroke="black" points="2078,-46.07 2074.5,-36.07 2071,-46.07 2078,-46.07"/>
</g>
<!-- t1_tech_3 -->
<g id="node13" class="node">
<title>t1_tech_3</title>
<polygon fill="#90ee90" stroke="black" points="2390,-36 2169,-36 2169,0 2390,0 2390,-36"/>
<text text-anchor="middle" x="2279.5" y="-14.9" font-family="Helvetica,sans-Serif" font-size="12.00">Compromise Host Software Binary</text>
</g>
<!-- t1_cap_3 -->
<g id="node14" class="node">
<title>t1_cap_3</title>
<polygon fill="#ffb6c1" stroke="black" points="2542.5,-36 2426.5,-36 2426.5,0 2542.5,0 2542.5,-36"/>
<text text-anchor="middle" x="2484.5" y="-14.9" font-family="Helvetica,sans-Serif" font-size="12.00">Replace Binaries</text>
</g>
<!-- t1_and_3 -->
<g id="node15" class="node">
<title>t1_and_3</title>
<ellipse fill="#ffcccb" stroke="black" cx="2221.5" cy="-112" rx="27" ry="18"/>
<text text-anchor="middle" x="2221.5" y="-108.9" font-family="Helvetica,sans-Serif" font-size="12.00">AND</text>
</g>
<!-- t1_and_3&#45;&gt;t1_tech_3 -->
<g id="edge8" class="edge">
<title>t1_and_3&#45;&gt;t1_tech_3</title>
<path fill="none" stroke="black" d="M2212.5,-94.76C2212.5,-94.76 2212.5,-46.09 2212.5,-46.09"/>
<polygon fill="black" stroke="black" points="2216,-46.09 2212.5,-36.09 2209,-46.09 2216,-46.09"/>
</g>
<!-- t1_and_3&#45;&gt;t1_cap_3 -->
<g id="edge9" class="edge">
<title>t1_and_3&#45;&gt;t1_cap_3</title>
<path fill="none" stroke="black" d="M2230.5,-94.77C2230.5,-81.35 2230.5,-65 2230.5,-65 2230.5,-65 2462.25,-65 2462.25,-65 2462.25,-65 2462.25,-46.04 2462.25,-46.04"/>
<polygon fill="black" stroke="black" points="2465.75,-46.04 2462.25,-36.04 2458.75,-46.04 2465.75,-46.04"/>
</g>
<!-- t1_cwe0_or_5 -->
<g id="node17" class="node">
<title>t1_cwe0_or_5</title>
<ellipse fill="#ffcccb" stroke="black" cx="1224.5" cy="-206" rx="27" ry="18"/>
<text text-anchor="middle" x="1224.5" y="-202.9" font-family="Helvetica,sans-Serif" font-size="12.00">OR</text>
</g>
<!-- t1_cwe0_or_4&#45;&gt;t1_cwe0_or_5 -->
<g id="edge14" class="edge">
<title>t1_cwe0_or_4&#45;&gt;t1_cwe0_or_5</title>
<path fill="none" stroke="black" d="M2083.01,-300C1933.46,-300 1224.5,-300 1224.5,-300 1224.5,-300 1224.5,-234.12 1224.5,-234.12"/>
<polygon fill="black" stroke="black" points="1228,-234.12 1224.5,-224.12 1221,-234.12 1228,-234.12"/>
</g>
<!-- t1_cwe0_or_6 -->
<g id="node18" class="node">
<title>t1_cwe0_or_6</title>
<ellipse fill="#ffcccb" stroke="black" cx="2110.5" cy="-206" rx="27" ry="18"/>
<text text-anchor="middle" x="2110.5" y="-202.9" font-family="Helvetica,sans-Serif" font-size="12.00">OR</text>
</g>
<!-- t1_cwe0_or_4&#45;&gt;t1_cwe0_or_6 -->
<g id="edge15" class="edge">
<title>t1_cwe0_or_4&#45;&gt;t1_cwe0_or_6</title>
<path fill="none" stroke="black" d="M2110.5,-281.88C2110.5,-281.88 2110.5,-234.07 2110.5,-234.07"/>
<polygon fill="black" stroke="black" points="2114,-234.07 2110.5,-224.07 2107,-234.07 2114,-234.07"/>
</g>
<!-- t1_cwe0_or_5&#45;&gt;t1_and_0 -->
<g id="edge10" class="edge">
<title>t1_cwe0_or_5&#45;&gt;t1_and_0</title>
<path fill="none" stroke="black" d="M1197.15,-206C1074.2,-206 578.5,-206 578.5,-206 578.5,-206 578.5,-140.12 578.5,-140.12"/>
<polygon fill="black" stroke="black" points="582,-140.12 578.5,-130.12 575,-140.12 582,-140.12"/>
</g>
<!-- t1_cwe0_or_5&#45;&gt;t1_and_1 -->
<g id="edge11" class="edge">
<title>t1_cwe0_or_5&#45;&gt;t1_and_1</title>
<path fill="none" stroke="black" d="M1224.5,-187.88C1224.5,-187.88 1224.5,-140.07 1224.5,-140.07"/>
<polygon fill="black" stroke="black" points="1228,-140.07 1224.5,-130.07 1221,-140.07 1228,-140.07"/>
</g>
<!-- t1_cwe0_or_6&#45;&gt;t1_and_2 -->
<g id="edge12" class="edge">
<title>t1_cwe0_or_6&#45;&gt;t1_and_2</title>
<path fill="none" stroke="black" d="M2092.5,-192.53C2092.5,-192.53 2092.5,-135.44 2092.5,-135.44"/>
<polygon fill="black" stroke="black" points="2096,-135.44 2092.5,-125.44 2089,-135.44 2096,-135.44"/>
</g>
<!-- t1_cwe0_or_6&#45;&gt;t1_and_3 -->
<g id="edge13" class="edge">
<title>t1_cwe0_or_6&#45;&gt;t1_and_3</title>
<path fill="none" stroke="black" d="M2117,-188.32C2117,-161.09 2117,-112 2117,-112 2117,-112 2184.32,-112 2184.32,-112"/>
<polygon fill="black" stroke="black" points="2184.32,-115.5 2194.32,-112 2184.32,-108.5 2184.32,-115.5"/>
</g>
<!-- t1_cwe_1 -->
<g id="node19" class="node">
<title>t1_cwe_1</title>
<polygon fill="#add8e6" stroke="black" points="2636,-318 2443,-318 2443,-282 2642,-282 2642,-312 2636,-318"/>
<polyline fill="none" stroke="black" points="2636,-318 2636,-312 "/>
<polyline fill="none" stroke="black" points="2642,-312 2636,-312 "/>
<text text-anchor="middle" x="2542.5" y="-296.9" font-family="Helvetica,sans-Serif" font-size="12.00">Use of Hard&#45;coded Credentials</text>
</g>
<!-- t1_and_7 -->
<g id="node22" class="node">
<title>t1_and_7</title>
<ellipse fill="#ffcccb" stroke="black" cx="2542.5" cy="-206" rx="27" ry="18"/>
<text text-anchor="middle" x="2542.5" y="-202.9" font-family="Helvetica,sans-Serif" font-size="12.00">AND</text>
</g>
<!-- t1_cwe_1&#45;&gt;t1_and_7 -->
<g id="edge19" class="edge">
<title>t1_cwe_1&#45;&gt;t1_and_7</title>
<path fill="none" stroke="black" d="M2542.5,-281.88C2542.5,-281.88 2542.5,-234.07 2542.5,-234.07"/>
<polygon fill="black" stroke="black" points="2546,-234.07 2542.5,-224.07 2539,-234.07 2546,-234.07"/>
</g>
<!-- t1_sub_7 -->
<g id="node20" class="node">
<title>t1_sub_7</title>
<polygon fill="#fffacd" stroke="black" points="2498,-130 2285,-130 2285,-94 2498,-94 2498,-130"/>
<text text-anchor="middle" x="2391.5" y="-108.9" font-family="Helvetica,sans-Serif" font-size="12.00">Valid Accounts: Default Accounts</text>
</g>
<!-- t1_cap_7 -->
<g id="node21" class="node">
<title>t1_cap_7</title>
<polygon fill="#ffb6c1" stroke="black" points="2853,-130 2534,-130 2534,-94 2853,-94 2853,-130"/>
<text text-anchor="middle" x="2693.5" y="-108.9" font-family="Helvetica,sans-Serif" font-size="12.00">Try Common or Default Usernames and Passwords</text>
</g>
<!-- t1_and_7&#45;&gt;t1_sub_7 -->
<g id="edge17" class="edge">
<title>t1_and_7&#45;&gt;t1_sub_7</title>
<path fill="none" stroke="black" d="M2524.75,-192.13C2524.75,-165.98 2524.75,-112 2524.75,-112 2524.75,-112 2508.11,-112 2508.11,-112"/>
<polygon fill="black" stroke="black" points="2508.11,-108.5 2498.11,-112 2508.11,-115.5 2508.11,-108.5"/>
</g>
<!-- t1_and_7&#45;&gt;t1_cap_7 -->
<g id="edge18" class="edge">
<title>t1_and_7&#45;&gt;t1_cap_7</title>
<path fill="none" stroke="black" d="M2551.75,-188.76C2551.75,-188.76 2551.75,-140.09 2551.75,-140.09"/>
<polygon fill="black" stroke="black" points="2555.25,-140.09 2551.75,-130.09 2548.25,-140.09 2555.25,-140.09"/>
</g>
<!-- t1_cwe_2 -->
<g id="node23" class="node">
<title>t1_cwe_2</title>
<polygon fill="#add8e6" stroke="black" points="2963,-318 2806,-318 2806,-282 2969,-282 2969,-312 2963,-318"/>
<polyline fill="none" stroke="black" points="2963,-318 2963,-312 "/>
<polyline fill="none" stroke="black" points="2969,-312 2963,-312 "/>
<text text-anchor="middle" x="2887.5" y="-296.9" font-family="Helvetica,sans-Serif" font-size="12.00">Improper Authentication</text>
</g>
<!-- t1_and_8 -->
<g id="node26" class="node">
<title>t1_and_8</title>
<ellipse fill="#ffcccb" stroke="black" cx="3015.5" cy="-206" rx="27" ry="18"/>
<text text-anchor="middle" x="3015.5" y="-202.9" font-family="Helvetica,sans-Serif" font-size="12.00">AND</text>
</g>
<!-- t1_cwe_2&#45;&gt;t1_and_8 -->
<g id="edge22" class="edge">
<title>t1_cwe_2&#45;&gt;t1_and_8</title>
<path fill="none" stroke="black" d="M2969.29,-300C2994.38,-300 3015.5,-300 3015.5,-300 3015.5,-300 3015.5,-234.12 3015.5,-234.12"/>
<polygon fill="black" stroke="black" points="3019,-234.12 3015.5,-224.12 3012,-234.12 3019,-234.12"/>
</g>
<!-- t1_sub_8 -->
<g id="node24" class="node">
<title>t1_sub_8</title>
<polygon fill="#fffacd" stroke="black" points="3141.5,-130 2889.5,-130 2889.5,-94 3141.5,-94 3141.5,-130"/>
<text text-anchor="middle" x="3015.5" y="-108.9" font-family="Helvetica,sans-Serif" font-size="12.00">Server Software Component: Web Shell</text>
</g>
<!-- t1_cap_8 -->
<g id="node25" class="node">
<title>t1_cap_8</title>
<polygon fill="#ffb6c1" stroke="black" points="3411,-130 3178,-130 3178,-94 3411,-94 3411,-130"/>
<text text-anchor="middle" x="3294.5" y="-108.9" font-family="Helvetica,sans-Serif" font-size="12.00">Upload a Web Shell to a Web Server</text>
</g>
<!-- t1_and_8&#45;&gt;t1_sub_8 -->
<g id="edge20" class="edge">
<title>t1_and_8&#45;&gt;t1_sub_8</title>
<path fill="none" stroke="black" d="M3015.5,-187.88C3015.5,-187.88 3015.5,-140.07 3015.5,-140.07"/>
<polygon fill="black" stroke="black" points="3019,-140.07 3015.5,-130.07 3012,-140.07 3019,-140.07"/>
</g>
<!-- t1_and_8&#45;&gt;t1_cap_8 -->
<g id="edge21" class="edge">
<title>t1_and_8&#45;&gt;t1_cap_8</title>
<path fill="none" stroke="black" d="M3042.51,-206C3112.52,-206 3294.5,-206 3294.5,-206 3294.5,-206 3294.5,-140.12 3294.5,-140.12"/>
<polygon fill="black" stroke="black" points="3298,-140.12 3294.5,-130.12 3291,-140.12 3298,-140.12"/>
</g>
<!-- t1_tac_or_9&#45;&gt;t1_cwe_0 -->
<g id="edge25" class="edge">
<title>t1_tac_or_9&#45;&gt;t1_cwe_0</title>
<path fill="none" stroke="black" d="M2412.5,-469.88C2412.5,-469.88 2412.5,-422.07 2412.5,-422.07"/>
<polygon fill="black" stroke="black" points="2416,-422.07 2412.5,-412.07 2409,-422.07 2416,-422.07"/>
</g>
<!-- t1_tac_or_10 -->
<g id="node28" class="node">
<title>t1_tac_or_10</title>
<ellipse fill="#ffcccb" stroke="black" cx="2542.5" cy="-394" rx="27" ry="18"/>
<text text-anchor="middle" x="2542.5" y="-390.9" font-family="Helvetica,sans-Serif" font-size="12.00">OR</text>
</g>
<!-- t1_tac_or_9&#45;&gt;t1_tac_or_10 -->
<g id="edge26" class="edge">
<title>t1_tac_or_9&#45;&gt;t1_tac_or_10</title>
<path fill="none" stroke="black" d="M2439.75,-488C2477.87,-488 2542.5,-488 2542.5,-488 2542.5,-488 2542.5,-422.12 2542.5,-422.12"/>
<polygon fill="black" stroke="black" points="2546,-422.12 2542.5,-412.12 2539,-422.12 2546,-422.12"/>
</g>
<!-- t1_tac_or_10&#45;&gt;t1_cwe_1 -->
<g id="edge23" class="edge">
<title>t1_tac_or_10&#45;&gt;t1_cwe_1</title>
<path fill="none" stroke="black" d="M2542.5,-375.88C2542.5,-375.88 2542.5,-328.07 2542.5,-328.07"/>
<polygon fill="black" stroke="black" points="2546,-328.07 2542.5,-318.07 2539,-328.07 2546,-328.07"/>
</g>
<!-- t1_tac_or_10&#45;&gt;t1_cwe_2 -->
<g id="edge24" class="edge">
<title>t1_tac_or_10&#45;&gt;t1_cwe_2</title>
<path fill="none" stroke="black" d="M2569.57,-394C2650.9,-394 2887.5,-394 2887.5,-394 2887.5,-394 2887.5,-328.12 2887.5,-328.12"/>
<polygon fill="black" stroke="black" points="2891,-328.12 2887.5,-318.12 2884,-328.12 2891,-328.12"/>
</g>
</g>
</svg>
