<?xml version="1.0" encoding="UTF-8" standalone="no"?>
<!DOCTYPE svg PUBLIC "-//W3C//DTD SVG 1.1//EN"
 "http://www.w3.org/Graphics/SVG/1.1/DTD/svg11.dtd">
<!-- Generated by graphviz version 2.43.0 (0)
 -->
<!-- Title: %3 Pages: 1 -->
<svg width="3659pt" height="796pt"
 viewBox="0.00 0.00 3658.50 796.00" xmlns="http://www.w3.org/2000/svg" xmlns:xlink="http://www.w3.org/1999/xlink">
<g id="graph0" class="graph" transform="scale(1 1) rotate(0) translate(4 792)">
<title>%3</title>
<polygon fill="white" stroke="transparent" points="-4,4 -4,-792 3654.5,-792 3654.5,4 -4,4"/>
<!-- root -->
<g id="node1" class="node">
<title>root</title>
<polygon fill="#ffd700" stroke="black" points="2326,-788 2189,-788 2189,-752 2326,-752 2326,-788"/>
<text text-anchor="middle" x="2257.5" y="-766.9" font-family="Helvetica,sans-Serif" font-size="12.00">Compromise Device</text>
</g>
<!-- t3_tactic -->
<g id="node2" class="node">
<title>t3_tactic</title>
<polygon fill="#98fb98" stroke="black" points="2315.5,-694 2199.5,-694 2199.5,-658 2315.5,-658 2315.5,-694"/>
<text text-anchor="middle" x="2257.5" y="-672.9" font-family="Helvetica,sans-Serif" font-size="12.00">Defense Evasion</text>
</g>
<!-- root&#45;&gt;t3_tactic -->
<g id="edge1" class="edge">
<title>root&#45;&gt;t3_tactic</title>
<path fill="none" stroke="black" d="M2257.5,-751.88C2257.5,-751.88 2257.5,-704.07 2257.5,-704.07"/>
<polygon fill="black" stroke="black" points="2261,-704.07 2257.5,-694.07 2254,-704.07 2261,-704.07"/>
</g>
<!-- t3_tac_or_17 -->
<g id="node43" class="node">
<title>t3_tac_or_17</title>
<ellipse fill="#ffcccb" stroke="black" cx="2257.5" cy="-582" rx="27" ry="18"/>
<text text-anchor="middle" x="2257.5" y="-578.9" font-family="Helvetica,sans-Serif" font-size="12.00">OR</text>
</g>
<!-- t3_tactic&#45;&gt;t3_tac_or_17 -->
<g id="edge43" class="edge">
<title>t3_tactic&#45;&gt;t3_tac_or_17</title>
<path fill="none" stroke="black" d="M2257.5,-657.88C2257.5,-657.88 2257.5,-610.07 2257.5,-610.07"/>
<polygon fill="black" stroke="black" points="2261,-610.07 2257.5,-600.07 2254,-610.07 2261,-610.07"/>
</g>
<!-- t3_cwe_0 -->
<g id="node3" class="node">
<title>t3_cwe_0</title>
<polygon fill="#add8e6" stroke="black" points="2304,-506 1975,-506 1975,-470 2310,-470 2310,-500 2304,-506"/>
<polyline fill="none" stroke="black" points="2304,-506 2304,-500 "/>
<polyline fill="none" stroke="black" points="2310,-500 2304,-500 "/>
<text text-anchor="middle" x="2142.5" y="-484.9" font-family="Helvetica,sans-Serif" font-size="12.00">Incorrect Permission Assignment for Critical Resource</text>
</g>
<!-- t3_cwe0_or_6 -->
<g id="node22" class="node">
<title>t3_cwe0_or_6</title>
<ellipse fill="#ffcccb" stroke="black" cx="1715.5" cy="-394" rx="27" ry="18"/>
<text text-anchor="middle" x="1715.5" y="-390.9" font-family="Helvetica,sans-Serif" font-size="12.00">OR</text>
</g>
<!-- t3_cwe_0&#45;&gt;t3_cwe0_or_6 -->
<g id="edge24" class="edge">
<title>t3_cwe_0&#45;&gt;t3_cwe0_or_6</title>
<path fill="none" stroke="black" d="M1989.75,-469.88C1989.75,-442.56 1989.75,-394 1989.75,-394 1989.75,-394 1752.8,-394 1752.8,-394"/>
<polygon fill="black" stroke="black" points="1752.8,-390.5 1742.8,-394 1752.8,-397.5 1752.8,-390.5"/>
</g>
<!-- t3_sub_0 -->
<g id="node4" class="node">
<title>t3_sub_0</title>
<polygon fill="#fffacd" stroke="black" points="363,-130 0,-130 0,-94 363,-94 363,-130"/>
<text text-anchor="middle" x="181.5" y="-108.9" font-family="Helvetica,sans-Serif" font-size="12.00">Hijack Execution Flow: Services File Permissions Weakness</text>
</g>
<!-- t3_cap_0 -->
<g id="node5" class="node">
<title>t3_cap_0</title>
<polygon fill="#ffb6c1" stroke="black" points="758,-130 399,-130 399,-94 758,-94 758,-130"/>
<text text-anchor="middle" x="578.5" y="-108.9" font-family="Helvetica,sans-Serif" font-size="12.00">Accessing Functionality Not Properly Constrained by ACLs</text>
</g>
<!-- t3_and_0 -->
<g id="node6" class="node">
<title>t3_and_0</title>
<ellipse fill="#ffcccb" stroke="black" cx="578.5" cy="-206" rx="27" ry="18"/>
<text text-anchor="middle" x="578.5" y="-202.9" font-family="Helvetica,sans-Serif" font-size="12.00">AND</text>
</g>
<!-- t3_and_0&#45;&gt;t3_sub_0 -->
<g id="edge2" class="edge">
<title>t3_and_0&#45;&gt;t3_sub_0</title>
<path fill="none" stroke="black" d="M551.21,-206C461.52,-206 181.5,-206 181.5,-206 181.5,-206 181.5,-140.12 181.5,-140.12"/>
<polygon fill="black" stroke="black" points="185,-140.12 181.5,-130.12 178,-140.12 185,-140.12"/>
</g>
<!-- t3_and_0&#45;&gt;t3_cap_0 -->
<g id="edge3" class="edge">
<title>t3_and_0&#45;&gt;t3_cap_0</title>
<path fill="none" stroke="black" d="M578.5,-187.88C578.5,-187.88 578.5,-140.07 578.5,-140.07"/>
<polygon fill="black" stroke="black" points="582,-140.07 578.5,-130.07 575,-140.07 582,-140.07"/>
</g>
<!-- t3_sub_1 -->
<g id="node7" class="node">
<title>t3_sub_1</title>
<polygon fill="#fffacd" stroke="black" points="485,-36 54,-36 54,0 485,0 485,-36"/>
<text text-anchor="middle" x="269.5" y="-14.9" font-family="Helvetica,sans-Serif" font-size="12.00">Hijack Execution Flow: Executable Installer File Permissions Weakness</text>
</g>
<!-- t3_cap_1 -->
<g id="node8" class="node">
<title>t3_cap_1</title>
<polygon fill="#ffb6c1" stroke="black" points="880,-36 521,-36 521,0 880,0 880,-36"/>
<text text-anchor="middle" x="700.5" y="-14.9" font-family="Helvetica,sans-Serif" font-size="12.00">Accessing Functionality Not Properly Constrained by ACLs</text>
</g>
<!-- t3_and_1 -->
<g id="node9" class="node">
<title>t3_and_1</title>
<ellipse fill="#ffcccb" stroke="black" cx="821.5" cy="-112" rx="27" ry="18"/>
<text text-anchor="middle" x="821.5" y="-108.9" font-family="Helvetica,sans-Serif" font-size="12.00">AND</text>
</g>
<!-- t3_and_1&#45;&gt;t3_sub_1 -->
<g id="edge4" class="edge">
<title>t3_and_1&#45;&gt;t3_sub_1</title>
<path fill="none" stroke="black" d="M812.5,-94.78C812.5,-84.72 812.5,-74 812.5,-74 812.5,-74 442,-74 442,-74 442,-74 442,-46.03 442,-46.03"/>
<polygon fill="black" stroke="black" points="445.5,-46.03 442,-36.03 438.5,-46.03 445.5,-46.03"/>
</g>
<!-- t3_and_1&#45;&gt;t3_cap_1 -->
<g id="edge5" class="edge">
<title>t3_and_1&#45;&gt;t3_cap_1</title>
<path fill="none" stroke="black" d="M830.5,-94.76C830.5,-94.76 830.5,-46.09 830.5,-46.09"/>
<polygon fill="black" stroke="black" points="834,-46.09 830.5,-36.09 827,-46.09 834,-46.09"/>
</g>
<!-- t3_tech_2 -->
<g id="node10" class="node">
<title>t3_tech_2</title>
<polygon fill="#90ee90" stroke="black" points="1146.5,-36 916.5,-36 916.5,0 1146.5,0 1146.5,-36"/>
<text text-anchor="middle" x="1031.5" y="-14.9" font-family="Helvetica,sans-Serif" font-size="12.00">Abuse Elevation Control Mechanism</text>
</g>
<!-- t3_cap_2 -->
<g id="node11" class="node">
<title>t3_cap_2</title>
<polygon fill="#ffb6c1" stroke="black" points="1290,-36 1183,-36 1183,0 1290,0 1290,-36"/>
<text text-anchor="middle" x="1236.5" y="-14.9" font-family="Helvetica,sans-Serif" font-size="12.00">Privilege Abuse</text>
</g>
<!-- t3_and_2 -->
<g id="node12" class="node">
<title>t3_and_2</title>
<ellipse fill="#ffcccb" stroke="black" cx="1031.5" cy="-112" rx="27" ry="18"/>
<text text-anchor="middle" x="1031.5" y="-108.9" font-family="Helvetica,sans-Serif" font-size="12.00">AND</text>
</g>
<!-- t3_and_2&#45;&gt;t3_tech_2 -->
<g id="edge6" class="edge">
<title>t3_and_2&#45;&gt;t3_tech_2</title>
<path fill="none" stroke="black" d="M1031.5,-93.88C1031.5,-93.88 1031.5,-46.07 1031.5,-46.07"/>
<polygon fill="black" stroke="black" points="1035,-46.07 1031.5,-36.07 1028,-46.07 1035,-46.07"/>
</g>
<!-- t3_and_2&#45;&gt;t3_cap_2 -->
<g id="edge7" class="edge">
<title>t3_and_2&#45;&gt;t3_cap_2</title>
<path fill="none" stroke="black" d="M1058.72,-112C1114.49,-112 1236.5,-112 1236.5,-112 1236.5,-112 1236.5,-46.12 1236.5,-46.12"/>
<polygon fill="black" stroke="black" points="1240,-46.12 1236.5,-36.12 1233,-46.12 1240,-46.12"/>
</g>
<!-- t3_sub_3 -->
<g id="node13" class="node">
<title>t3_sub_3</title>
<polygon fill="#fffacd" stroke="black" points="1585,-130 1352,-130 1352,-94 1585,-94 1585,-130"/>
<text text-anchor="middle" x="1468.5" y="-108.9" font-family="Helvetica,sans-Serif" font-size="12.00">Subvert Trust Controls: Code Signing</text>
</g>
<!-- t3_cap_3 -->
<g id="node14" class="node">
<title>t3_cap_3</title>
<polygon fill="#ffb6c1" stroke="black" points="1774,-130 1621,-130 1621,-94 1774,-94 1774,-130"/>
<text text-anchor="middle" x="1697.5" y="-108.9" font-family="Helvetica,sans-Serif" font-size="12.00">Signing Malicious Code</text>
</g>
<!-- t3_and_3 -->
<g id="node15" class="node">
<title>t3_and_3</title>
<ellipse fill="#ffcccb" stroke="black" cx="1697.5" cy="-206" rx="27" ry="18"/>
<text text-anchor="middle" x="1697.5" y="-202.9" font-family="Helvetica,sans-Serif" font-size="12.00">AND</text>
</g>
<!-- t3_and_3&#45;&gt;t3_sub_3 -->
<g id="edge8" class="edge">
<title>t3_and_3&#45;&gt;t3_sub_3</title>
<path fill="none" stroke="black" d="M1670.33,-206C1609.67,-206 1468.5,-206 1468.5,-206 1468.5,-206 1468.5,-140.12 1468.5,-140.12"/>
<polygon fill="black" stroke="black" points="1472,-140.12 1468.5,-130.12 1465,-140.12 1472,-140.12"/>
</g>
<!-- t3_and_3&#45;&gt;t3_cap_3 -->
<g id="edge9" class="edge">
<title>t3_and_3&#45;&gt;t3_cap_3</title>
<path fill="none" stroke="black" d="M1697.5,-187.88C1697.5,-187.88 1697.5,-140.07 1697.5,-140.07"/>
<polygon fill="black" stroke="black" points="1701,-140.07 1697.5,-130.07 1694,-140.07 1701,-140.07"/>
</g>
<!-- t3_sub_4 -->
<g id="node16" class="node">
<title>t3_sub_4</title>
<polygon fill="#fffacd" stroke="black" points="1670.5,-36 1326.5,-36 1326.5,0 1670.5,0 1670.5,-36"/>
<text text-anchor="middle" x="1498.5" y="-14.9" font-family="Helvetica,sans-Serif" font-size="12.00">Access Token Manipulation: Token Impersonation/Theft</text>
</g>
<!-- t3_cap_4 -->
<g id="node17" class="node">
<title>t3_cap_4</title>
<polygon fill="#ffb6c1" stroke="black" points="1968,-36 1707,-36 1707,0 1968,0 1968,-36"/>
<text text-anchor="middle" x="1837.5" y="-14.9" font-family="Helvetica,sans-Serif" font-size="12.00">Reusing Session IDs (aka Session Replay)</text>
</g>
<!-- t3_and_4 -->
<g id="node18" class="node">
<title>t3_and_4</title>
<ellipse fill="#ffcccb" stroke="black" cx="1837.5" cy="-112" rx="27" ry="18"/>
<text text-anchor="middle" x="1837.5" y="-108.9" font-family="Helvetica,sans-Serif" font-size="12.00">AND</text>
</g>
<!-- t3_and_4&#45;&gt;t3_sub_4 -->
<g id="edge10" class="edge">
<title>t3_and_4&#45;&gt;t3_sub_4</title>
<path fill="none" stroke="black" d="M1828.5,-94.9C1828.5,-78.11 1828.5,-55 1828.5,-55 1828.5,-55 1645.75,-55 1645.75,-55 1645.75,-55 1645.75,-46.07 1645.75,-46.07"/>
<polygon fill="black" stroke="black" points="1649.25,-46.07 1645.75,-36.07 1642.25,-46.07 1649.25,-46.07"/>
</g>
<!-- t3_and_4&#45;&gt;t3_cap_4 -->
<g id="edge11" class="edge">
<title>t3_and_4&#45;&gt;t3_cap_4</title>
<path fill="none" stroke="black" d="M1846.5,-94.76C1846.5,-94.76 1846.5,-46.09 1846.5,-46.09"/>
<polygon fill="black" stroke="black" points="1850,-46.09 1846.5,-36.09 1843,-46.09 1850,-46.09"/>
</g>
<!-- t3_sub_5 -->
<g id="node19" class="node">
<title>t3_sub_5</title>
<polygon fill="#fffacd" stroke="black" points="2372.5,-36 2004.5,-36 2004.5,0 2372.5,0 2372.5,-36"/>
<text text-anchor="middle" x="2188.5" y="-14.9" font-family="Helvetica,sans-Serif" font-size="12.00">Use Alternate Authentication Material: Web Session Cookie</text>
</g>
<!-- t3_cap_5 -->
<g id="node20" class="node">
<title>t3_cap_5</title>
<polygon fill="#ffb6c1" stroke="black" points="2670,-36 2409,-36 2409,0 2670,0 2670,-36"/>
<text text-anchor="middle" x="2539.5" y="-14.9" font-family="Helvetica,sans-Serif" font-size="12.00">Reusing Session IDs (aka Session Replay)</text>
</g>
<!-- t3_and_5 -->
<g id="node21" class="node">
<title>t3_and_5</title>
<ellipse fill="#ffcccb" stroke="black" cx="2188.5" cy="-112" rx="27" ry="18"/>
<text text-anchor="middle" x="2188.5" y="-108.9" font-family="Helvetica,sans-Serif" font-size="12.00">AND</text>
</g>
<!-- t3_and_5&#45;&gt;t3_sub_5 -->
<g id="edge12" class="edge">
<title>t3_and_5&#45;&gt;t3_sub_5</title>
<path fill="none" stroke="black" d="M2188.5,-93.88C2188.5,-93.88 2188.5,-46.07 2188.5,-46.07"/>
<polygon fill="black" stroke="black" points="2192,-46.07 2188.5,-36.07 2185,-46.07 2192,-46.07"/>
</g>
<!-- t3_and_5&#45;&gt;t3_cap_5 -->
<g id="edge13" class="edge">
<title>t3_and_5&#45;&gt;t3_cap_5</title>
<path fill="none" stroke="black" d="M2215.72,-112C2290.28,-112 2492.25,-112 2492.25,-112 2492.25,-112 2492.25,-46.12 2492.25,-46.12"/>
<polygon fill="black" stroke="black" points="2495.75,-46.12 2492.25,-36.12 2488.75,-46.12 2495.75,-46.12"/>
</g>
<!-- t3_cwe0_or_7 -->
<g id="node23" class="node">
<title>t3_cwe0_or_7</title>
<ellipse fill="#ffcccb" stroke="black" cx="926.5" cy="-300" rx="27" ry="18"/>
<text text-anchor="middle" x="926.5" y="-296.9" font-family="Helvetica,sans-Serif" font-size="12.00">OR</text>
</g>
<!-- t3_cwe0_or_6&#45;&gt;t3_cwe0_or_7 -->
<g id="edge22" class="edge">
<title>t3_cwe0_or_6&#45;&gt;t3_cwe0_or_7</title>
<path fill="none" stroke="black" d="M1688.34,-394C1549.6,-394 926.5,-394 926.5,-394 926.5,-394 926.5,-328.12 926.5,-328.12"/>
<polygon fill="black" stroke="black" points="930,-328.12 926.5,-318.12 923,-328.12 930,-328.12"/>
</g>
<!-- t3_cwe0_or_9 -->
<g id="node25" class="node">
<title>t3_cwe0_or_9</title>
<ellipse fill="#ffcccb" stroke="black" cx="1715.5" cy="-300" rx="27" ry="18"/>
<text text-anchor="middle" x="1715.5" y="-296.9" font-family="Helvetica,sans-Serif" font-size="12.00">OR</text>
</g>
<!-- t3_cwe0_or_6&#45;&gt;t3_cwe0_or_9 -->
<g id="edge23" class="edge">
<title>t3_cwe0_or_6&#45;&gt;t3_cwe0_or_9</title>
<path fill="none" stroke="black" d="M1715.5,-375.88C1715.5,-375.88 1715.5,-328.07 1715.5,-328.07"/>
<polygon fill="black" stroke="black" points="1719,-328.07 1715.5,-318.07 1712,-328.07 1719,-328.07"/>
</g>
<!-- t3_cwe0_or_7&#45;&gt;t3_and_0 -->
<g id="edge16" class="edge">
<title>t3_cwe0_or_7&#45;&gt;t3_and_0</title>
<path fill="none" stroke="black" d="M899.48,-300C817.72,-300 578.5,-300 578.5,-300 578.5,-300 578.5,-234.12 578.5,-234.12"/>
<polygon fill="black" stroke="black" points="582,-234.12 578.5,-224.12 575,-234.12 582,-234.12"/>
</g>
<!-- t3_cwe0_or_8 -->
<g id="node24" class="node">
<title>t3_cwe0_or_8</title>
<ellipse fill="#ffcccb" stroke="black" cx="926.5" cy="-206" rx="27" ry="18"/>
<text text-anchor="middle" x="926.5" y="-202.9" font-family="Helvetica,sans-Serif" font-size="12.00">OR</text>
</g>
<!-- t3_cwe0_or_7&#45;&gt;t3_cwe0_or_8 -->
<g id="edge17" class="edge">
<title>t3_cwe0_or_7&#45;&gt;t3_cwe0_or_8</title>
<path fill="none" stroke="black" d="M926.5,-281.88C926.5,-281.88 926.5,-234.07 926.5,-234.07"/>
<polygon fill="black" stroke="black" points="930,-234.07 926.5,-224.07 923,-234.07 930,-234.07"/>
</g>
<!-- t3_cwe0_or_8&#45;&gt;t3_and_1 -->
<g id="edge14" class="edge">
<title>t3_cwe0_or_8&#45;&gt;t3_and_1</title>
<path fill="none" stroke="black" d="M908,-192.51C908,-165.22 908,-106 908,-106 908,-106 856.99,-106 856.99,-106"/>
<polygon fill="black" stroke="black" points="856.99,-102.5 846.99,-106 856.98,-109.5 856.99,-102.5"/>
</g>
<!-- t3_cwe0_or_8&#45;&gt;t3_and_2 -->
<g id="edge15" class="edge">
<title>t3_cwe0_or_8&#45;&gt;t3_and_2</title>
<path fill="none" stroke="black" d="M935,-188.61C935,-162.97 935,-118 935,-118 935,-118 995.89,-118 995.89,-118"/>
<polygon fill="black" stroke="black" points="995.89,-121.5 1005.89,-118 995.89,-114.5 995.89,-121.5"/>
</g>
<!-- t3_cwe0_or_9&#45;&gt;t3_and_3 -->
<g id="edge20" class="edge">
<title>t3_cwe0_or_9&#45;&gt;t3_and_3</title>
<path fill="none" stroke="black" d="M1706.5,-282.76C1706.5,-282.76 1706.5,-233.13 1706.5,-233.13"/>
<polygon fill="black" stroke="black" points="1710,-233.13 1706.5,-223.13 1703,-233.13 1710,-233.13"/>
</g>
<!-- t3_cwe0_or_10 -->
<g id="node26" class="node">
<title>t3_cwe0_or_10</title>
<ellipse fill="#ffcccb" stroke="black" cx="1837.5" cy="-206" rx="27" ry="18"/>
<text text-anchor="middle" x="1837.5" y="-202.9" font-family="Helvetica,sans-Serif" font-size="12.00">OR</text>
</g>
<!-- t3_cwe0_or_9&#45;&gt;t3_cwe0_or_10 -->
<g id="edge21" class="edge">
<title>t3_cwe0_or_9&#45;&gt;t3_cwe0_or_10</title>
<path fill="none" stroke="black" d="M1733.5,-286.53C1733.5,-260.54 1733.5,-206 1733.5,-206 1733.5,-206 1800.45,-206 1800.45,-206"/>
<polygon fill="black" stroke="black" points="1800.45,-209.5 1810.45,-206 1800.45,-202.5 1800.45,-209.5"/>
</g>
<!-- t3_cwe0_or_10&#45;&gt;t3_and_4 -->
<g id="edge18" class="edge">
<title>t3_cwe0_or_10&#45;&gt;t3_and_4</title>
<path fill="none" stroke="black" d="M1837.5,-187.88C1837.5,-187.88 1837.5,-140.07 1837.5,-140.07"/>
<polygon fill="black" stroke="black" points="1841,-140.07 1837.5,-130.07 1834,-140.07 1841,-140.07"/>
</g>
<!-- t3_cwe0_or_10&#45;&gt;t3_and_5 -->
<g id="edge19" class="edge">
<title>t3_cwe0_or_10&#45;&gt;t3_and_5</title>
<path fill="none" stroke="black" d="M1864.6,-206C1887.38,-206 1916.25,-206 1916.25,-206 1916.25,-206 1916.25,-112 1916.25,-112 1916.25,-112 2151.4,-112 2151.4,-112"/>
<polygon fill="black" stroke="black" points="2151.4,-115.5 2161.4,-112 2151.4,-108.5 2151.4,-115.5"/>
</g>
<!-- t3_cwe_1 -->
<g id="node27" class="node">
<title>t3_cwe_1</title>
<polygon fill="#add8e6" stroke="black" points="2514,-412 2321,-412 2321,-376 2520,-376 2520,-406 2514,-412"/>
<polyline fill="none" stroke="black" points="2514,-412 2514,-406 "/>
<polyline fill="none" stroke="black" points="2520,-406 2514,-406 "/>
<text text-anchor="middle" x="2420.5" y="-390.9" font-family="Helvetica,sans-Serif" font-size="12.00">Use of Hard&#45;coded Credentials</text>
</g>
<!-- t3_and_11 -->
<g id="node30" class="node">
<title>t3_and_11</title>
<ellipse fill="#ffcccb" stroke="black" cx="2420.5" cy="-300" rx="27" ry="18"/>
<text text-anchor="middle" x="2420.5" y="-296.9" font-family="Helvetica,sans-Serif" font-size="12.00">AND</text>
</g>
<!-- t3_cwe_1&#45;&gt;t3_and_11 -->
<g id="edge27" class="edge">
<title>t3_cwe_1&#45;&gt;t3_and_11</title>
<path fill="none" stroke="black" d="M2420.5,-375.88C2420.5,-375.88 2420.5,-328.07 2420.5,-328.07"/>
<polygon fill="black" stroke="black" points="2424,-328.07 2420.5,-318.07 2417,-328.07 2424,-328.07"/>
</g>
<!-- t3_sub_11 -->
<g id="node28" class="node">
<title>t3_sub_11</title>
<polygon fill="#fffacd" stroke="black" points="2376,-224 2163,-224 2163,-188 2376,-188 2376,-224"/>
<text text-anchor="middle" x="2269.5" y="-202.9" font-family="Helvetica,sans-Serif" font-size="12.00">Valid Accounts: Default Accounts</text>
</g>
<!-- t3_cap_11 -->
<g id="node29" class="node">
<title>t3_cap_11</title>
<polygon fill="#ffb6c1" stroke="black" points="2731,-224 2412,-224 2412,-188 2731,-188 2731,-224"/>
<text text-anchor="middle" x="2571.5" y="-202.9" font-family="Helvetica,sans-Serif" font-size="12.00">Try Common or Default Usernames and Passwords</text>
</g>
<!-- t3_and_11&#45;&gt;t3_sub_11 -->
<g id="edge25" class="edge">
<title>t3_and_11&#45;&gt;t3_sub_11</title>
<path fill="none" stroke="black" d="M2401.25,-287.32C2401.25,-261.66 2401.25,-206 2401.25,-206 2401.25,-206 2386.16,-206 2386.16,-206"/>
<polygon fill="black" stroke="black" points="2386.16,-202.5 2376.16,-206 2386.16,-209.5 2386.16,-202.5"/>
</g>
<!-- t3_and_11&#45;&gt;t3_cap_11 -->
<g id="edge26" class="edge">
<title>t3_and_11&#45;&gt;t3_cap_11</title>
<path fill="none" stroke="black" d="M2429.75,-282.76C2429.75,-282.76 2429.75,-234.09 2429.75,-234.09"/>
<polygon fill="black" stroke="black" points="2433.25,-234.09 2429.75,-224.09 2426.25,-234.09 2433.25,-234.09"/>
</g>
<!-- t3_cwe_2 -->
<g id="node31" class="node">
<title>t3_cwe_2</title>
<polygon fill="#add8e6" stroke="black" points="2794,-412 2637,-412 2637,-376 2800,-376 2800,-406 2794,-412"/>
<polyline fill="none" stroke="black" points="2794,-412 2794,-406 "/>
<polyline fill="none" stroke="black" points="2800,-406 2794,-406 "/>
<text text-anchor="middle" x="2718.5" y="-390.9" font-family="Helvetica,sans-Serif" font-size="12.00">Improper Authentication</text>
</g>
<!-- t3_cwe2_or_15 -->
<g id="node41" class="node">
<title>t3_cwe2_or_15</title>
<ellipse fill="#ffcccb" stroke="black" cx="2798.5" cy="-300" rx="27" ry="18"/>
<text text-anchor="middle" x="2798.5" y="-296.9" font-family="Helvetica,sans-Serif" font-size="12.00">OR</text>
</g>
<!-- t3_cwe_2&#45;&gt;t3_cwe2_or_15 -->
<g id="edge38" class="edge">
<title>t3_cwe_2&#45;&gt;t3_cwe2_or_15</title>
<path fill="none" stroke="black" d="M2785.75,-375.88C2785.75,-375.88 2785.75,-325.88 2785.75,-325.88"/>
<polygon fill="black" stroke="black" points="2789.25,-325.88 2785.75,-315.88 2782.25,-325.88 2789.25,-325.88"/>
</g>
<!-- t3_tech_12 -->
<g id="node32" class="node">
<title>t3_tech_12</title>
<polygon fill="#90ee90" stroke="black" points="2802.5,-130 2572.5,-130 2572.5,-94 2802.5,-94 2802.5,-130"/>
<text text-anchor="middle" x="2687.5" y="-108.9" font-family="Helvetica,sans-Serif" font-size="12.00">Abuse Elevation Control Mechanism</text>
</g>
<!-- t3_cap_12 -->
<g id="node33" class="node">
<title>t3_cap_12</title>
<polygon fill="#ffb6c1" stroke="black" points="2982.5,-130 2838.5,-130 2838.5,-94 2982.5,-94 2982.5,-130"/>
<text text-anchor="middle" x="2910.5" y="-108.9" font-family="Helvetica,sans-Serif" font-size="12.00">Authentication Abuse</text>
</g>
<!-- t3_and_12 -->
<g id="node34" class="node">
<title>t3_and_12</title>
<ellipse fill="#ffcccb" stroke="black" cx="2798.5" cy="-206" rx="27" ry="18"/>
<text text-anchor="middle" x="2798.5" y="-202.9" font-family="Helvetica,sans-Serif" font-size="12.00">AND</text>
</g>
<!-- t3_and_12&#45;&gt;t3_tech_12 -->
<g id="edge28" class="edge">
<title>t3_and_12&#45;&gt;t3_tech_12</title>
<path fill="none" stroke="black" d="M2787,-189.63C2787,-189.63 2787,-140.11 2787,-140.11"/>
<polygon fill="black" stroke="black" points="2790.5,-140.11 2787,-130.11 2783.5,-140.11 2790.5,-140.11"/>
</g>
<!-- t3_and_12&#45;&gt;t3_cap_12 -->
<g id="edge29" class="edge">
<title>t3_and_12&#45;&gt;t3_cap_12</title>
<path fill="none" stroke="black" d="M2814,-190.9C2814,-164.33 2814,-112 2814,-112 2814,-112 2828.35,-112 2828.35,-112"/>
<polygon fill="black" stroke="black" points="2828.35,-115.5 2838.35,-112 2828.35,-108.5 2828.35,-115.5"/>
</g>
<!-- t3_sub_13 -->
<g id="node35" class="node">
<title>t3_sub_13</title>
<polygon fill="#fffacd" stroke="black" points="3104.5,-36 2706.5,-36 2706.5,0 3104.5,0 3104.5,-36"/>
<text text-anchor="middle" x="2905.5" y="-14.9" font-family="Helvetica,sans-Serif" font-size="12.00">Use Alternate Authentication Material: Application Access Token</text>
</g>
<!-- t3_cap_13 -->
<g id="node36" class="node">
<title>t3_cap_13</title>
<polygon fill="#ffb6c1" stroke="black" points="3260,-36 3141,-36 3141,0 3260,0 3260,-36"/>
<text text-anchor="middle" x="3200.5" y="-14.9" font-family="Helvetica,sans-Serif" font-size="12.00">Session Hijacking</text>
</g>
<!-- t3_and_13 -->
<g id="node37" class="node">
<title>t3_and_13</title>
<ellipse fill="#ffcccb" stroke="black" cx="3052.5" cy="-112" rx="27" ry="18"/>
<text text-anchor="middle" x="3052.5" y="-108.9" font-family="Helvetica,sans-Serif" font-size="12.00">AND</text>
</g>
<!-- t3_and_13&#45;&gt;t3_sub_13 -->
<g id="edge30" class="edge">
<title>t3_and_13&#45;&gt;t3_sub_13</title>
<path fill="none" stroke="black" d="M3052.5,-93.88C3052.5,-93.88 3052.5,-46.07 3052.5,-46.07"/>
<polygon fill="black" stroke="black" points="3056,-46.07 3052.5,-36.07 3049,-46.07 3056,-46.07"/>
</g>
<!-- t3_and_13&#45;&gt;t3_cap_13 -->
<g id="edge31" class="edge">
<title>t3_and_13&#45;&gt;t3_cap_13</title>
<path fill="none" stroke="black" d="M3079.65,-112C3122.37,-112 3200.5,-112 3200.5,-112 3200.5,-112 3200.5,-46.12 3200.5,-46.12"/>
<polygon fill="black" stroke="black" points="3204,-46.12 3200.5,-36.12 3197,-46.12 3204,-46.12"/>
</g>
<!-- t3_tech_14 -->
<g id="node38" class="node">
<title>t3_tech_14</title>
<polygon fill="#90ee90" stroke="black" points="3472.5,-36 3296.5,-36 3296.5,0 3472.5,0 3472.5,-36"/>
<text text-anchor="middle" x="3384.5" y="-14.9" font-family="Helvetica,sans-Serif" font-size="12.00">Access Token Manipulation</text>
</g>
<!-- t3_cap_14 -->
<g id="node39" class="node">
<title>t3_cap_14</title>
<polygon fill="#ffb6c1" stroke="black" points="3650.5,-36 3508.5,-36 3508.5,0 3650.5,0 3650.5,-36"/>
<text text-anchor="middle" x="3579.5" y="-14.9" font-family="Helvetica,sans-Serif" font-size="12.00">Token Impersonation</text>
</g>
<!-- t3_and_14 -->
<g id="node40" class="node">
<title>t3_and_14</title>
<ellipse fill="#ffcccb" stroke="black" cx="3384.5" cy="-112" rx="27" ry="18"/>
<text text-anchor="middle" x="3384.5" y="-108.9" font-family="Helvetica,sans-Serif" font-size="12.00">AND</text>
</g>
<!-- t3_and_14&#45;&gt;t3_tech_14 -->
<g id="edge32" class="edge">
<title>t3_and_14&#45;&gt;t3_tech_14</title>
<path fill="none" stroke="black" d="M3384.5,-93.88C3384.5,-93.88 3384.5,-46.07 3384.5,-46.07"/>
<polygon fill="black" stroke="black" points="3388,-46.07 3384.5,-36.07 3381,-46.07 3388,-46.07"/>
</g>
<!-- t3_and_14&#45;&gt;t3_cap_14 -->
<g id="edge33" class="edge">
<title>t3_and_14&#45;&gt;t3_cap_14</title>
<path fill="none" stroke="black" d="M3411.61,-112C3465.19,-112 3579.5,-112 3579.5,-112 3579.5,-112 3579.5,-46.12 3579.5,-46.12"/>
<polygon fill="black" stroke="black" points="3583,-46.12 3579.5,-36.12 3576,-46.12 3583,-46.12"/>
</g>
<!-- t3_cwe2_or_15&#45;&gt;t3_and_12 -->
<g id="edge36" class="edge">
<title>t3_cwe2_or_15&#45;&gt;t3_and_12</title>
<path fill="none" stroke="black" d="M2798.5,-281.88C2798.5,-281.88 2798.5,-234.07 2798.5,-234.07"/>
<polygon fill="black" stroke="black" points="2802,-234.07 2798.5,-224.07 2795,-234.07 2802,-234.07"/>
</g>
<!-- t3_cwe2_or_16 -->
<g id="node42" class="node">
<title>t3_cwe2_or_16</title>
<ellipse fill="#ffcccb" stroke="black" cx="3052.5" cy="-206" rx="27" ry="18"/>
<text text-anchor="middle" x="3052.5" y="-202.9" font-family="Helvetica,sans-Serif" font-size="12.00">OR</text>
</g>
<!-- t3_cwe2_or_15&#45;&gt;t3_cwe2_or_16 -->
<g id="edge37" class="edge">
<title>t3_cwe2_or_15&#45;&gt;t3_cwe2_or_16</title>
<path fill="none" stroke="black" d="M2825.68,-300C2891.21,-300 3052.5,-300 3052.5,-300 3052.5,-300 3052.5,-234.12 3052.5,-234.12"/>
<polygon fill="black" stroke="black" points="3056,-234.12 3052.5,-224.12 3049,-234.12 3056,-234.12"/>
</g>
<!-- t3_cwe2_or_16&#45;&gt;t3_and_13 -->
<g id="edge34" class="edge">
<title>t3_cwe2_or_16&#45;&gt;t3_and_13</title>
<path fill="none" stroke="black" d="M3052.5,-187.88C3052.5,-187.88 3052.5,-140.07 3052.5,-140.07"/>
<polygon fill="black" stroke="black" points="3056,-140.07 3052.5,-130.07 3049,-140.07 3056,-140.07"/>
</g>
<!-- t3_cwe2_or_16&#45;&gt;t3_and_14 -->
<g id="edge35" class="edge">
<title>t3_cwe2_or_16&#45;&gt;t3_and_14</title>
<path fill="none" stroke="black" d="M3079.67,-206C3158.96,-206 3384.5,-206 3384.5,-206 3384.5,-206 3384.5,-140.12 3384.5,-140.12"/>
<polygon fill="black" stroke="black" points="3388,-140.12 3384.5,-130.12 3381,-140.12 3388,-140.12"/>
</g>
<!-- t3_tac_or_17&#45;&gt;t3_cwe_0 -->
<g id="edge41" class="edge">
<title>t3_tac_or_17&#45;&gt;t3_cwe_0</title>
<path fill="none" stroke="black" d="M2257.5,-563.88C2257.5,-563.88 2257.5,-516.07 2257.5,-516.07"/>
<polygon fill="black" stroke="black" points="2261,-516.07 2257.5,-506.07 2254,-516.07 2261,-516.07"/>
</g>
<!-- t3_tac_or_18 -->
<g id="node44" class="node">
<title>t3_tac_or_18</title>
<ellipse fill="#ffcccb" stroke="black" cx="2420.5" cy="-488" rx="27" ry="18"/>
<text text-anchor="middle" x="2420.5" y="-484.9" font-family="Helvetica,sans-Serif" font-size="12.00">OR</text>
</g>
<!-- t3_tac_or_17&#45;&gt;t3_tac_or_18 -->
<g id="edge42" class="edge">
<title>t3_tac_or_17&#45;&gt;t3_tac_or_18</title>
<path fill="none" stroke="black" d="M2284.78,-582C2331.18,-582 2420.5,-582 2420.5,-582 2420.5,-582 2420.5,-516.12 2420.5,-516.12"/>
<polygon fill="black" stroke="black" points="2424,-516.12 2420.5,-506.12 2417,-516.12 2424,-516.12"/>
</g>
<!-- t3_tac_or_18&#45;&gt;t3_cwe_1 -->
<g id="edge39" class="edge">
<title>t3_tac_or_18&#45;&gt;t3_cwe_1</title>
<path fill="none" stroke="black" d="M2420.5,-469.88C2420.5,-469.88 2420.5,-422.07 2420.5,-422.07"/>
<polygon fill="black" stroke="black" points="2424,-422.07 2420.5,-412.07 2417,-422.07 2424,-422.07"/>
</g>
<!-- t3_tac_or_18&#45;&gt;t3_cwe_2 -->
<g id="edge40" class="edge">
<title>t3_tac_or_18&#45;&gt;t3_cwe_2</title>
<path fill="none" stroke="black" d="M2447.74,-488C2521.3,-488 2718.5,-488 2718.5,-488 2718.5,-488 2718.5,-422.12 2718.5,-422.12"/>
<polygon fill="black" stroke="black" points="2722,-422.12 2718.5,-412.12 2715,-422.12 2722,-422.12"/>
</g>
</g>
</svg>
