<?xml version="1.0" encoding="UTF-8" standalone="no"?>
<!DOCTYPE svg PUBLIC "-//W3C//DTD SVG 1.1//EN"
 "http://www.w3.org/Graphics/SVG/1.1/DTD/svg11.dtd">
<!-- Generated by graphviz version 2.43.0 (0)
 -->
<!-- Title: %3 Pages: 1 -->
<svg width="3553pt" height="702pt"
 viewBox="0.00 0.00 3552.50 702.00" xmlns="http://www.w3.org/2000/svg" xmlns:xlink="http://www.w3.org/1999/xlink">
<g id="graph0" class="graph" transform="scale(1 1) rotate(0) translate(4 698)">
<title>%3</title>
<polygon fill="white" stroke="transparent" points="-4,4 -4,-698 3548.5,-698 3548.5,4 -4,4"/>
<!-- root -->
<g id="node1" class="node">
<title>root</title>
<polygon fill="#ffd700" stroke="black" points="2375,-694 2238,-694 2238,-658 2375,-658 2375,-694"/>
<text text-anchor="middle" x="2306.5" y="-672.9" font-family="Helvetica,sans-Serif" font-size="12.00">Compromise Device</text>
</g>
<!-- t2_tactic -->
<g id="node2" class="node">
<title>t2_tactic</title>
<polygon fill="#98fb98" stroke="black" points="2372,-600 2241,-600 2241,-564 2372,-564 2372,-600"/>
<text text-anchor="middle" x="2306.5" y="-578.9" font-family="Helvetica,sans-Serif" font-size="12.00">Privilege Escalation</text>
</g>
<!-- root&#45;&gt;t2_tactic -->
<g id="edge1" class="edge">
<title>root&#45;&gt;t2_tactic</title>
<path fill="none" stroke="black" d="M2306.5,-657.88C2306.5,-657.88 2306.5,-610.07 2306.5,-610.07"/>
<polygon fill="black" stroke="black" points="2310,-610.07 2306.5,-600.07 2303,-610.07 2310,-610.07"/>
</g>
<!-- t2_tac_or_11 -->
<g id="node31" class="node">
<title>t2_tac_or_11</title>
<ellipse fill="#ffcccb" stroke="black" cx="2306.5" cy="-488" rx="27" ry="18"/>
<text text-anchor="middle" x="2306.5" y="-484.9" font-family="Helvetica,sans-Serif" font-size="12.00">OR</text>
</g>
<!-- t2_tactic&#45;&gt;t2_tac_or_11 -->
<g id="edge31" class="edge">
<title>t2_tactic&#45;&gt;t2_tac_or_11</title>
<path fill="none" stroke="black" d="M2306.5,-563.88C2306.5,-563.88 2306.5,-516.07 2306.5,-516.07"/>
<polygon fill="black" stroke="black" points="2310,-516.07 2306.5,-506.07 2303,-516.07 2310,-516.07"/>
</g>
<!-- t2_cwe_0 -->
<g id="node3" class="node">
<title>t2_cwe_0</title>
<polygon fill="#add8e6" stroke="black" points="2353,-412 2024,-412 2024,-376 2359,-376 2359,-406 2353,-412"/>
<polyline fill="none" stroke="black" points="2353,-412 2353,-406 "/>
<polyline fill="none" stroke="black" points="2359,-406 2353,-406 "/>
<text text-anchor="middle" x="2191.5" y="-390.9" font-family="Helvetica,sans-Serif" font-size="12.00">Incorrect Permission Assignment for Critical Resource</text>
</g>
<!-- t2_cwe0_or_4 -->
<g id="node16" class="node">
<title>t2_cwe0_or_4</title>
<ellipse fill="#ffcccb" stroke="black" cx="2008.5" cy="-300" rx="27" ry="18"/>
<text text-anchor="middle" x="2008.5" y="-296.9" font-family="Helvetica,sans-Serif" font-size="12.00">OR</text>
</g>
<!-- t2_cwe_0&#45;&gt;t2_cwe0_or_4 -->
<g id="edge16" class="edge">
<title>t2_cwe_0&#45;&gt;t2_cwe0_or_4</title>
<path fill="none" stroke="black" d="M2029.75,-375.88C2029.75,-375.88 2029.75,-321.28 2029.75,-321.28"/>
<polygon fill="black" stroke="black" points="2033.25,-321.28 2029.75,-311.28 2026.25,-321.28 2033.25,-321.28"/>
</g>
<!-- t2_sub_0 -->
<g id="node4" class="node">
<title>t2_sub_0</title>
<polygon fill="#fffacd" stroke="black" points="363,-36 0,-36 0,0 363,0 363,-36"/>
<text text-anchor="middle" x="181.5" y="-14.9" font-family="Helvetica,sans-Serif" font-size="12.00">Hijack Execution Flow: Services File Permissions Weakness</text>
</g>
<!-- t2_cap_0 -->
<g id="node5" class="node">
<title>t2_cap_0</title>
<polygon fill="#ffb6c1" stroke="black" points="758,-36 399,-36 399,0 758,0 758,-36"/>
<text text-anchor="middle" x="578.5" y="-14.9" font-family="Helvetica,sans-Serif" font-size="12.00">Accessing Functionality Not Properly Constrained by ACLs</text>
</g>
<!-- t2_and_0 -->
<g id="node6" class="node">
<title>t2_and_0</title>
<ellipse fill="#ffcccb" stroke="black" cx="578.5" cy="-112" rx="27" ry="18"/>
<text text-anchor="middle" x="578.5" y="-108.9" font-family="Helvetica,sans-Serif" font-size="12.00">AND</text>
</g>
<!-- t2_and_0&#45;&gt;t2_sub_0 -->
<g id="edge2" class="edge">
<title>t2_and_0&#45;&gt;t2_sub_0</title>
<path fill="none" stroke="black" d="M551.21,-112C461.52,-112 181.5,-112 181.5,-112 181.5,-112 181.5,-46.12 181.5,-46.12"/>
<polygon fill="black" stroke="black" points="185,-46.12 181.5,-36.12 178,-46.12 185,-46.12"/>
</g>
<!-- t2_and_0&#45;&gt;t2_cap_0 -->
<g id="edge3" class="edge">
<title>t2_and_0&#45;&gt;t2_cap_0</title>
<path fill="none" stroke="black" d="M578.5,-93.88C578.5,-93.88 578.5,-46.07 578.5,-46.07"/>
<polygon fill="black" stroke="black" points="582,-46.07 578.5,-36.07 575,-46.07 582,-46.07"/>
</g>
<!-- t2_sub_1 -->
<g id="node7" class="node">
<title>t2_sub_1</title>
<polygon fill="#fffacd" stroke="black" points="1225,-36 794,-36 794,0 1225,0 1225,-36"/>
<text text-anchor="middle" x="1009.5" y="-14.9" font-family="Helvetica,sans-Serif" font-size="12.00">Hijack Execution Flow: Executable Installer File Permissions Weakness</text>
</g>
<!-- t2_cap_1 -->
<g id="node8" class="node">
<title>t2_cap_1</title>
<polygon fill="#ffb6c1" stroke="black" points="1620,-36 1261,-36 1261,0 1620,0 1620,-36"/>
<text text-anchor="middle" x="1440.5" y="-14.9" font-family="Helvetica,sans-Serif" font-size="12.00">Accessing Functionality Not Properly Constrained by ACLs</text>
</g>
<!-- t2_and_1 -->
<g id="node9" class="node">
<title>t2_and_1</title>
<ellipse fill="#ffcccb" stroke="black" cx="1224.5" cy="-112" rx="27" ry="18"/>
<text text-anchor="middle" x="1224.5" y="-108.9" font-family="Helvetica,sans-Serif" font-size="12.00">AND</text>
</g>
<!-- t2_and_1&#45;&gt;t2_sub_1 -->
<g id="edge4" class="edge">
<title>t2_and_1&#45;&gt;t2_sub_1</title>
<path fill="none" stroke="black" d="M1211.25,-96.05C1211.25,-96.05 1211.25,-46.28 1211.25,-46.28"/>
<polygon fill="black" stroke="black" points="1214.75,-46.28 1211.25,-36.28 1207.75,-46.28 1214.75,-46.28"/>
</g>
<!-- t2_and_1&#45;&gt;t2_cap_1 -->
<g id="edge5" class="edge">
<title>t2_and_1&#45;&gt;t2_cap_1</title>
<path fill="none" stroke="black" d="M1238.25,-96.48C1238.25,-69.78 1238.25,-18 1238.25,-18 1238.25,-18 1250.67,-18 1250.67,-18"/>
<polygon fill="black" stroke="black" points="1250.67,-21.5 1260.67,-18 1250.67,-14.5 1250.67,-21.5"/>
</g>
<!-- t2_tech_2 -->
<g id="node10" class="node">
<title>t2_tech_2</title>
<polygon fill="#90ee90" stroke="black" points="1886.5,-36 1656.5,-36 1656.5,0 1886.5,0 1886.5,-36"/>
<text text-anchor="middle" x="1771.5" y="-14.9" font-family="Helvetica,sans-Serif" font-size="12.00">Abuse Elevation Control Mechanism</text>
</g>
<!-- t2_cap_2 -->
<g id="node11" class="node">
<title>t2_cap_2</title>
<polygon fill="#ffb6c1" stroke="black" points="2030,-36 1923,-36 1923,0 2030,0 2030,-36"/>
<text text-anchor="middle" x="1976.5" y="-14.9" font-family="Helvetica,sans-Serif" font-size="12.00">Privilege Abuse</text>
</g>
<!-- t2_and_2 -->
<g id="node12" class="node">
<title>t2_and_2</title>
<ellipse fill="#ffcccb" stroke="black" cx="1976.5" cy="-112" rx="27" ry="18"/>
<text text-anchor="middle" x="1976.5" y="-108.9" font-family="Helvetica,sans-Serif" font-size="12.00">AND</text>
</g>
<!-- t2_and_2&#45;&gt;t2_tech_2 -->
<g id="edge6" class="edge">
<title>t2_and_2&#45;&gt;t2_tech_2</title>
<path fill="none" stroke="black" d="M1949.28,-112C1893.51,-112 1771.5,-112 1771.5,-112 1771.5,-112 1771.5,-46.12 1771.5,-46.12"/>
<polygon fill="black" stroke="black" points="1775,-46.12 1771.5,-36.12 1768,-46.12 1775,-46.12"/>
</g>
<!-- t2_and_2&#45;&gt;t2_cap_2 -->
<g id="edge7" class="edge">
<title>t2_and_2&#45;&gt;t2_cap_2</title>
<path fill="none" stroke="black" d="M1976.5,-93.88C1976.5,-93.88 1976.5,-46.07 1976.5,-46.07"/>
<polygon fill="black" stroke="black" points="1980,-46.07 1976.5,-36.07 1973,-46.07 1980,-46.07"/>
</g>
<!-- t2_sub_3 -->
<g id="node13" class="node">
<title>t2_sub_3</title>
<polygon fill="#fffacd" stroke="black" points="2410.5,-36 2066.5,-36 2066.5,0 2410.5,0 2410.5,-36"/>
<text text-anchor="middle" x="2238.5" y="-14.9" font-family="Helvetica,sans-Serif" font-size="12.00">Access Token Manipulation: Token Impersonation/Theft</text>
</g>
<!-- t2_cap_3 -->
<g id="node14" class="node">
<title>t2_cap_3</title>
<polygon fill="#ffb6c1" stroke="black" points="2708,-36 2447,-36 2447,0 2708,0 2708,-36"/>
<text text-anchor="middle" x="2577.5" y="-14.9" font-family="Helvetica,sans-Serif" font-size="12.00">Reusing Session IDs (aka Session Replay)</text>
</g>
<!-- t2_and_3 -->
<g id="node15" class="node">
<title>t2_and_3</title>
<ellipse fill="#ffcccb" stroke="black" cx="2238.5" cy="-112" rx="27" ry="18"/>
<text text-anchor="middle" x="2238.5" y="-108.9" font-family="Helvetica,sans-Serif" font-size="12.00">AND</text>
</g>
<!-- t2_and_3&#45;&gt;t2_sub_3 -->
<g id="edge8" class="edge">
<title>t2_and_3&#45;&gt;t2_sub_3</title>
<path fill="none" stroke="black" d="M2229.5,-94.76C2229.5,-94.76 2229.5,-46.09 2229.5,-46.09"/>
<polygon fill="black" stroke="black" points="2233,-46.09 2229.5,-36.09 2226,-46.09 2233,-46.09"/>
</g>
<!-- t2_and_3&#45;&gt;t2_cap_3 -->
<g id="edge9" class="edge">
<title>t2_and_3&#45;&gt;t2_cap_3</title>
<path fill="none" stroke="black" d="M2247.5,-94.77C2247.5,-81.35 2247.5,-65 2247.5,-65 2247.5,-65 2500,-65 2500,-65 2500,-65 2500,-46.04 2500,-46.04"/>
<polygon fill="black" stroke="black" points="2503.5,-46.04 2500,-36.04 2496.5,-46.04 2503.5,-46.04"/>
</g>
<!-- t2_cwe0_or_5 -->
<g id="node17" class="node">
<title>t2_cwe0_or_5</title>
<ellipse fill="#ffcccb" stroke="black" cx="1224.5" cy="-206" rx="27" ry="18"/>
<text text-anchor="middle" x="1224.5" y="-202.9" font-family="Helvetica,sans-Serif" font-size="12.00">OR</text>
</g>
<!-- t2_cwe0_or_4&#45;&gt;t2_cwe0_or_5 -->
<g id="edge14" class="edge">
<title>t2_cwe0_or_4&#45;&gt;t2_cwe0_or_5</title>
<path fill="none" stroke="black" d="M1981.06,-300C1842.29,-300 1224.5,-300 1224.5,-300 1224.5,-300 1224.5,-234.12 1224.5,-234.12"/>
<polygon fill="black" stroke="black" points="1228,-234.12 1224.5,-224.12 1221,-234.12 1228,-234.12"/>
</g>
<!-- t2_cwe0_or_6 -->
<g id="node18" class="node">
<title>t2_cwe0_or_6</title>
<ellipse fill="#ffcccb" stroke="black" cx="2008.5" cy="-206" rx="27" ry="18"/>
<text text-anchor="middle" x="2008.5" y="-202.9" font-family="Helvetica,sans-Serif" font-size="12.00">OR</text>
</g>
<!-- t2_cwe0_or_4&#45;&gt;t2_cwe0_or_6 -->
<g id="edge15" class="edge">
<title>t2_cwe0_or_4&#45;&gt;t2_cwe0_or_6</title>
<path fill="none" stroke="black" d="M2008.5,-281.88C2008.5,-281.88 2008.5,-234.07 2008.5,-234.07"/>
<polygon fill="black" stroke="black" points="2012,-234.07 2008.5,-224.07 2005,-234.07 2012,-234.07"/>
</g>
<!-- t2_cwe0_or_5&#45;&gt;t2_and_0 -->
<g id="edge10" class="edge">
<title>t2_cwe0_or_5&#45;&gt;t2_and_0</title>
<path fill="none" stroke="black" d="M1197.15,-206C1074.2,-206 578.5,-206 578.5,-206 578.5,-206 578.5,-140.12 578.5,-140.12"/>
<polygon fill="black" stroke="black" points="582,-140.12 578.5,-130.12 575,-140.12 582,-140.12"/>
</g>
<!-- t2_cwe0_or_5&#45;&gt;t2_and_1 -->
<g id="edge11" class="edge">
<title>t2_cwe0_or_5&#45;&gt;t2_and_1</title>
<path fill="none" stroke="black" d="M1224.5,-187.88C1224.5,-187.88 1224.5,-140.07 1224.5,-140.07"/>
<polygon fill="black" stroke="black" points="1228,-140.07 1224.5,-130.07 1221,-140.07 1228,-140.07"/>
</g>
<!-- t2_cwe0_or_6&#45;&gt;t2_and_2 -->
<g id="edge12" class="edge">
<title>t2_cwe0_or_6&#45;&gt;t2_and_2</title>
<path fill="none" stroke="black" d="M1992.5,-191.31C1992.5,-191.31 1992.5,-136.58 1992.5,-136.58"/>
<polygon fill="black" stroke="black" points="1996,-136.58 1992.5,-126.58 1989,-136.58 1996,-136.58"/>
</g>
<!-- t2_cwe0_or_6&#45;&gt;t2_and_3 -->
<g id="edge13" class="edge">
<title>t2_cwe0_or_6&#45;&gt;t2_and_3</title>
<path fill="none" stroke="black" d="M2016.75,-188.76C2016.75,-161.62 2016.75,-112 2016.75,-112 2016.75,-112 2201.31,-112 2201.31,-112"/>
<polygon fill="black" stroke="black" points="2201.31,-115.5 2211.31,-112 2201.31,-108.5 2201.31,-115.5"/>
</g>
<!-- t2_cwe_1 -->
<g id="node19" class="node">
<title>t2_cwe_1</title>
<polygon fill="#add8e6" stroke="black" points="2691,-318 2498,-318 2498,-282 2697,-282 2697,-312 2691,-318"/>
<polyline fill="none" stroke="black" points="2691,-318 2691,-312 "/>
<polyline fill="none" stroke="black" points="2697,-312 2691,-312 "/>
<text text-anchor="middle" x="2597.5" y="-296.9" font-family="Helvetica,sans-Serif" font-size="12.00">Use of Hard&#45;coded Credentials</text>
</g>
<!-- t2_and_7 -->
<g id="node22" class="node">
<title>t2_and_7</title>
<ellipse fill="#ffcccb" stroke="black" cx="2597.5" cy="-206" rx="27" ry="18"/>
<text text-anchor="middle" x="2597.5" y="-202.9" font-family="Helvetica,sans-Serif" font-size="12.00">AND</text>
</g>
<!-- t2_cwe_1&#45;&gt;t2_and_7 -->
<g id="edge19" class="edge">
<title>t2_cwe_1&#45;&gt;t2_and_7</title>
<path fill="none" stroke="black" d="M2597.5,-281.88C2597.5,-281.88 2597.5,-234.07 2597.5,-234.07"/>
<polygon fill="black" stroke="black" points="2601,-234.07 2597.5,-224.07 2594,-234.07 2601,-234.07"/>
</g>
<!-- t2_sub_7 -->
<g id="node20" class="node">
<title>t2_sub_7</title>
<polygon fill="#fffacd" stroke="black" points="2553,-130 2340,-130 2340,-94 2553,-94 2553,-130"/>
<text text-anchor="middle" x="2446.5" y="-108.9" font-family="Helvetica,sans-Serif" font-size="12.00">Valid Accounts: Default Accounts</text>
</g>
<!-- t2_cap_7 -->
<g id="node21" class="node">
<title>t2_cap_7</title>
<polygon fill="#ffb6c1" stroke="black" points="2908,-130 2589,-130 2589,-94 2908,-94 2908,-130"/>
<text text-anchor="middle" x="2748.5" y="-108.9" font-family="Helvetica,sans-Serif" font-size="12.00">Try Common or Default Usernames and Passwords</text>
</g>
<!-- t2_and_7&#45;&gt;t2_sub_7 -->
<g id="edge17" class="edge">
<title>t2_and_7&#45;&gt;t2_sub_7</title>
<path fill="none" stroke="black" d="M2579.75,-192.13C2579.75,-165.98 2579.75,-112 2579.75,-112 2579.75,-112 2563.11,-112 2563.11,-112"/>
<polygon fill="black" stroke="black" points="2563.11,-108.5 2553.11,-112 2563.11,-115.5 2563.11,-108.5"/>
</g>
<!-- t2_and_7&#45;&gt;t2_cap_7 -->
<g id="edge18" class="edge">
<title>t2_and_7&#45;&gt;t2_cap_7</title>
<path fill="none" stroke="black" d="M2606.75,-188.76C2606.75,-188.76 2606.75,-140.09 2606.75,-140.09"/>
<polygon fill="black" stroke="black" points="2610.25,-140.09 2606.75,-130.09 2603.25,-140.09 2610.25,-140.09"/>
</g>
<!-- t2_cwe_2 -->
<g id="node23" class="node">
<title>t2_cwe_2</title>
<polygon fill="#add8e6" stroke="black" points="2987,-318 2830,-318 2830,-282 2993,-282 2993,-312 2987,-318"/>
<polyline fill="none" stroke="black" points="2987,-318 2987,-312 "/>
<polyline fill="none" stroke="black" points="2993,-312 2987,-312 "/>
<text text-anchor="middle" x="2911.5" y="-296.9" font-family="Helvetica,sans-Serif" font-size="12.00">Improper Authentication</text>
</g>
<!-- t2_cwe2_or_10 -->
<g id="node30" class="node">
<title>t2_cwe2_or_10</title>
<ellipse fill="#ffcccb" stroke="black" cx="3008.5" cy="-206" rx="27" ry="18"/>
<text text-anchor="middle" x="3008.5" y="-202.9" font-family="Helvetica,sans-Serif" font-size="12.00">OR</text>
</g>
<!-- t2_cwe_2&#45;&gt;t2_cwe2_or_10 -->
<g id="edge26" class="edge">
<title>t2_cwe_2&#45;&gt;t2_cwe2_or_10</title>
<path fill="none" stroke="black" d="M2987.25,-281.88C2987.25,-281.88 2987.25,-227.28 2987.25,-227.28"/>
<polygon fill="black" stroke="black" points="2990.75,-227.28 2987.25,-217.28 2983.75,-227.28 2990.75,-227.28"/>
</g>
<!-- t2_tech_8 -->
<g id="node24" class="node">
<title>t2_tech_8</title>
<polygon fill="#90ee90" stroke="black" points="2974.5,-36 2744.5,-36 2744.5,0 2974.5,0 2974.5,-36"/>
<text text-anchor="middle" x="2859.5" y="-14.9" font-family="Helvetica,sans-Serif" font-size="12.00">Abuse Elevation Control Mechanism</text>
</g>
<!-- t2_cap_8 -->
<g id="node25" class="node">
<title>t2_cap_8</title>
<polygon fill="#ffb6c1" stroke="black" points="3154.5,-36 3010.5,-36 3010.5,0 3154.5,0 3154.5,-36"/>
<text text-anchor="middle" x="3082.5" y="-14.9" font-family="Helvetica,sans-Serif" font-size="12.00">Authentication Abuse</text>
</g>
<!-- t2_and_8 -->
<g id="node26" class="node">
<title>t2_and_8</title>
<ellipse fill="#ffcccb" stroke="black" cx="3008.5" cy="-112" rx="27" ry="18"/>
<text text-anchor="middle" x="3008.5" y="-108.9" font-family="Helvetica,sans-Serif" font-size="12.00">AND</text>
</g>
<!-- t2_and_8&#45;&gt;t2_tech_8 -->
<g id="edge20" class="edge">
<title>t2_and_8&#45;&gt;t2_tech_8</title>
<path fill="none" stroke="black" d="M2996,-95.63C2996,-68.69 2996,-18 2996,-18 2996,-18 2984.67,-18 2984.67,-18"/>
<polygon fill="black" stroke="black" points="2984.67,-14.5 2974.67,-18 2984.67,-21.5 2984.67,-14.5"/>
</g>
<!-- t2_and_8&#45;&gt;t2_cap_8 -->
<g id="edge21" class="edge">
<title>t2_and_8&#45;&gt;t2_cap_8</title>
<path fill="none" stroke="black" d="M3023,-96.48C3023,-96.48 3023,-46.12 3023,-46.12"/>
<polygon fill="black" stroke="black" points="3026.5,-46.12 3023,-36.12 3019.5,-46.12 3026.5,-46.12"/>
</g>
<!-- t2_tech_9 -->
<g id="node27" class="node">
<title>t2_tech_9</title>
<polygon fill="#90ee90" stroke="black" points="3366.5,-36 3190.5,-36 3190.5,0 3366.5,0 3366.5,-36"/>
<text text-anchor="middle" x="3278.5" y="-14.9" font-family="Helvetica,sans-Serif" font-size="12.00">Access Token Manipulation</text>
</g>
<!-- t2_cap_9 -->
<g id="node28" class="node">
<title>t2_cap_9</title>
<polygon fill="#ffb6c1" stroke="black" points="3544.5,-36 3402.5,-36 3402.5,0 3544.5,0 3544.5,-36"/>
<text text-anchor="middle" x="3473.5" y="-14.9" font-family="Helvetica,sans-Serif" font-size="12.00">Token Impersonation</text>
</g>
<!-- t2_and_9 -->
<g id="node29" class="node">
<title>t2_and_9</title>
<ellipse fill="#ffcccb" stroke="black" cx="3278.5" cy="-112" rx="27" ry="18"/>
<text text-anchor="middle" x="3278.5" y="-108.9" font-family="Helvetica,sans-Serif" font-size="12.00">AND</text>
</g>
<!-- t2_and_9&#45;&gt;t2_tech_9 -->
<g id="edge22" class="edge">
<title>t2_and_9&#45;&gt;t2_tech_9</title>
<path fill="none" stroke="black" d="M3278.5,-93.88C3278.5,-93.88 3278.5,-46.07 3278.5,-46.07"/>
<polygon fill="black" stroke="black" points="3282,-46.07 3278.5,-36.07 3275,-46.07 3282,-46.07"/>
</g>
<!-- t2_and_9&#45;&gt;t2_cap_9 -->
<g id="edge23" class="edge">
<title>t2_and_9&#45;&gt;t2_cap_9</title>
<path fill="none" stroke="black" d="M3305.61,-112C3359.19,-112 3473.5,-112 3473.5,-112 3473.5,-112 3473.5,-46.12 3473.5,-46.12"/>
<polygon fill="black" stroke="black" points="3477,-46.12 3473.5,-36.12 3470,-46.12 3477,-46.12"/>
</g>
<!-- t2_cwe2_or_10&#45;&gt;t2_and_8 -->
<g id="edge24" class="edge">
<title>t2_cwe2_or_10&#45;&gt;t2_and_8</title>
<path fill="none" stroke="black" d="M3008.5,-187.88C3008.5,-187.88 3008.5,-140.07 3008.5,-140.07"/>
<polygon fill="black" stroke="black" points="3012,-140.07 3008.5,-130.07 3005,-140.07 3012,-140.07"/>
</g>
<!-- t2_cwe2_or_10&#45;&gt;t2_and_9 -->
<g id="edge25" class="edge">
<title>t2_cwe2_or_10&#45;&gt;t2_and_9</title>
<path fill="none" stroke="black" d="M3035.62,-206C3104.09,-206 3278.5,-206 3278.5,-206 3278.5,-206 3278.5,-140.12 3278.5,-140.12"/>
<polygon fill="black" stroke="black" points="3282,-140.12 3278.5,-130.12 3275,-140.12 3282,-140.12"/>
</g>
<!-- t2_tac_or_11&#45;&gt;t2_cwe_0 -->
<g id="edge29" class="edge">
<title>t2_tac_or_11&#45;&gt;t2_cwe_0</title>
<path fill="none" stroke="black" d="M2306.5,-469.88C2306.5,-469.88 2306.5,-422.07 2306.5,-422.07"/>
<polygon fill="black" stroke="black" points="2310,-422.07 2306.5,-412.07 2303,-422.07 2310,-422.07"/>
</g>
<!-- t2_tac_or_12 -->
<g id="node32" class="node">
<title>t2_tac_or_12</title>
<ellipse fill="#ffcccb" stroke="black" cx="2597.5" cy="-394" rx="27" ry="18"/>
<text text-anchor="middle" x="2597.5" y="-390.9" font-family="Helvetica,sans-Serif" font-size="12.00">OR</text>
</g>
<!-- t2_tac_or_11&#45;&gt;t2_tac_or_12 -->
<g id="edge30" class="edge">
<title>t2_tac_or_11&#45;&gt;t2_tac_or_12</title>
<path fill="none" stroke="black" d="M2333.62,-488C2405.86,-488 2597.5,-488 2597.5,-488 2597.5,-488 2597.5,-422.12 2597.5,-422.12"/>
<polygon fill="black" stroke="black" points="2601,-422.12 2597.5,-412.12 2594,-422.12 2601,-422.12"/>
</g>
<!-- t2_tac_or_12&#45;&gt;t2_cwe_1 -->
<g id="edge27" class="edge">
<title>t2_tac_or_12&#45;&gt;t2_cwe_1</title>
<path fill="none" stroke="black" d="M2597.5,-375.88C2597.5,-375.88 2597.5,-328.07 2597.5,-328.07"/>
<polygon fill="black" stroke="black" points="2601,-328.07 2597.5,-318.07 2594,-328.07 2601,-328.07"/>
</g>
<!-- t2_tac_or_12&#45;&gt;t2_cwe_2 -->
<g id="edge28" class="edge">
<title>t2_tac_or_12&#45;&gt;t2_cwe_2</title>
<path fill="none" stroke="black" d="M2624.54,-394C2700.71,-394 2911.5,-394 2911.5,-394 2911.5,-394 2911.5,-328.12 2911.5,-328.12"/>
<polygon fill="black" stroke="black" points="2915,-328.12 2911.5,-318.12 2908,-328.12 2915,-328.12"/>
</g>
</g>
</svg>
